<?xml version="1.0"?>
<svg width="43" height="44" xmlns="http://www.w3.org/2000/svg" xmlns:svg="http://www.w3.org/2000/svg">
 <g class="layer">
  <title>Layer 1</title>
  <path d="m27.29,2.1c0,-0.24 0,-0.48 0,-0.71c0.01,-0.79 0.6,-1.39 1.37,-1.39c0.78,0 1.37,0.6 1.37,1.38c0.01,0.19 0.01,0.37 0,0.55c-0.01,0.15 0.04,0.2 0.19,0.2c1.07,-0.01 2.14,-0.01 3.21,-0.01c0.16,0 0.38,0.04 0.47,-0.05c0.09,-0.07 0.04,-0.3 0.04,-0.45c-0.02,-0.46 0.05,-0.87 0.39,-1.21c0.39,-0.4 0.97,-0.52 1.5,-0.31c0.5,0.19 0.84,0.69 0.84,1.23c0.01,0.3 0.01,0.6 0,0.89c0,0.12 0.04,0.17 0.16,0.21c1.86,0.55 3.3,1.65 4.33,3.27c0.77,1.21 1.14,2.55 1.15,3.99c0,8.9 0,17.8 -0.01,26.7c0,3.65 -2.53,6.73 -6.13,7.45c-0.52,0.1 -1.05,0.15 -1.58,0.15c-8.96,0.01 -17.92,0.01 -26.89,0.01c-3.53,0 -6.53,-2.29 -7.45,-5.66c-0.17,-0.6 -0.25,-1.22 -0.25,-1.84c0,-7.84 0,-15.68 0,-23.51c0,-1.08 -0.01,-2.15 0.01,-3.23c0.03,-2.78 1.22,-4.95 3.56,-6.47c1.09,-0.71 2.3,-1.07 3.59,-1.15c0.16,-0.01 0.2,-0.07 0.2,-0.21c-0.01,-0.24 -0.01,-0.48 0.01,-0.71c0.07,-0.73 0.67,-1.23 1.42,-1.22c0.69,0.02 1.26,0.58 1.3,1.27c0.01,0.23 0.01,0.46 0.01,0.69c0,0.11 0.03,0.16 0.15,0.16c1.2,0 2.4,0 3.6,0c0.11,0 0.16,-0.03 0.15,-0.15c0,-0.2 0,-0.4 0,-0.6c0.02,-0.8 0.61,-1.37 1.41,-1.37c0.75,0.01 1.33,0.61 1.33,1.39c0,0.19 0,0.39 0,0.58c-0.01,0.11 0.02,0.15 0.14,0.15c1.21,0 2.42,0 3.63,0c0.12,0 0.14,-0.05 0.14,-0.15c0,-0.19 0,-0.39 0,-0.58c0.01,-0.8 0.59,-1.39 1.37,-1.39c0.78,0.01 1.36,0.59 1.36,1.39c0,0.19 0.01,0.39 0,0.58c0,0.11 0.03,0.15 0.14,0.15c1.22,0 2.44,0 3.66,0c0.03,0 0.06,-0.01 0.11,-0.02l0,0zm-6.13,11.55c-6.06,0 -12.11,0 -18.17,0c-0.16,0 -0.25,0.08 -0.25,0.25c0,7.51 0,15.03 0,22.55c0,2.65 2.21,4.83 4.89,4.83c8.98,0 17.97,0 26.95,0c0.19,0 0.37,-0.01 0.56,-0.03c2.47,-0.22 4.42,-2.32 4.43,-4.78c0,-7.52 0,-15.04 0,-22.57c0,-0.17 -0.09,-0.25 -0.27,-0.25c-6.05,0 -12.1,0 -18.14,0l0,0zm15.52,-8.39c0,0.13 0,0.23 0,0.33c-0.02,0.78 -0.71,1.39 -1.49,1.32c-0.72,-0.07 -1.24,-0.63 -1.25,-1.36c0,-0.23 0,-0.47 0,-0.71l-3.91,0c0,0.26 0.01,0.5 0,0.74c-0.01,0.69 -0.52,1.24 -1.22,1.33c-0.66,0.07 -1.3,-0.35 -1.46,-1c-0.05,-0.19 -0.04,-0.4 -0.05,-0.6c-0.01,-0.15 -0.01,-0.31 -0.01,-0.45c-0.03,-0.02 -0.04,-0.02 -0.04,-0.02c-1.25,0 -2.5,-0.01 -3.75,-0.01c-0.09,0 -0.12,0.04 -0.12,0.13c0.01,0.2 0,0.39 0,0.59c0,0.76 -0.59,1.36 -1.35,1.36c-0.76,0.01 -1.36,-0.57 -1.38,-1.33c0,-0.2 0,-0.39 0,-0.59c0.01,-0.12 -0.03,-0.17 -0.16,-0.16c-0.17,0 -0.35,0 -0.52,0c-1.01,0 -2.03,0 -3.04,0c-0.15,0 -0.2,0.04 -0.19,0.19c0.01,0.18 0,0.36 0,0.55c-0.01,0.74 -0.58,1.32 -1.32,1.34c-0.75,0.03 -1.37,-0.53 -1.41,-1.28c-0.01,-0.21 -0.01,-0.43 -0.01,-0.64c0.01,-0.12 -0.04,-0.16 -0.16,-0.16c-1.19,0 -2.39,0 -3.58,0c-0.13,0 -0.16,0.05 -0.16,0.17c0,0.22 0,0.45 -0.01,0.67c-0.04,0.68 -0.62,1.22 -1.31,1.24c-0.8,0.03 -1.41,-0.57 -1.43,-1.4c0,-0.22 0,-0.43 0,-0.67c-0.1,0.01 -0.19,0.01 -0.27,0.02c-2.1,0.22 -3.91,1.87 -4.25,3.93c-0.1,0.62 -0.06,1.27 -0.09,1.91c-0.01,0.24 0,0.24 0.25,0.24c12.11,0 24.22,0 36.34,0l0.2,0c0.12,-0.44 0.01,-2.1 -0.17,-2.67c-0.28,-0.87 -0.75,-1.61 -1.44,-2.21c-0.36,-0.32 -0.77,-0.59 -1.24,-0.8z" fill="#f7af32" id="svg_1"/>
  <path d="m28.13,20.13c0,-0.57 0,-1.13 -0.01,-1.7c0,-0.17 0.04,-0.22 0.22,-0.22c1.14,0.01 2.28,0 3.41,0c0.17,0 0.23,0.03 0.23,0.21c-0.01,1.13 -0.01,2.27 0,3.4c0,0.17 -0.06,0.2 -0.22,0.2c-1.14,0 -2.28,0 -3.41,0.01c-0.2,0 -0.23,-0.06 -0.23,-0.24c0.01,-0.55 0.01,-1.11 0.01,-1.66l0,0z" fill="#f7af32" id="svg_2"/>
  <path d="m31.97,27.81c0,0.57 0,1.15 0.01,1.72c0,0.15 -0.05,0.19 -0.2,0.19c-1.15,-0.01 -2.31,-0.01 -3.47,0c-0.15,0 -0.19,-0.05 -0.19,-0.19c0.01,-1.15 0.01,-2.29 0,-3.44c0,-0.15 0.05,-0.19 0.2,-0.19c1.15,0.01 2.31,0.01 3.47,0c0.15,0 0.19,0.05 0.19,0.19c-0.01,0.58 -0.01,1.15 -0.01,1.72l0,0z" fill="#f7af32" id="svg_3"/>
  <path d="m30.05,37.41c-0.58,0 -1.17,-0.01 -1.75,0c-0.14,0 -0.18,-0.04 -0.18,-0.17c0.01,-1.16 0.01,-2.31 0,-3.47c0,-0.13 0.04,-0.17 0.18,-0.17c1.16,0 2.33,0 3.5,0c0.14,0 0.18,0.03 0.18,0.17c-0.01,1.15 -0.01,2.31 0,3.47c0,0.13 -0.04,0.17 -0.18,0.17c-0.58,-0.01 -1.17,0 -1.75,0l0,0z" fill="#f7af32" id="svg_4"/>
  <path d="m10.35,22l0,-3.78l3.82,0l0,3.78l-3.82,0z" fill="#f7af32" id="svg_5"/>
  <path d="m10.35,25.92l3.82,0l0,3.78l-3.82,0l0,-3.78z" fill="#f7af32" id="svg_6"/>
  <path d="m14.16,37.4l-3.81,0l0,-3.79l3.81,0l0,3.79z" fill="#f7af32" id="svg_7"/>
  <path d="m19.23,35.49c0,-0.56 0,-1.13 0,-1.7c0,-0.14 0.02,-0.2 0.18,-0.19c1.16,0 2.32,0 3.48,0c0.14,-0.01 0.19,0.04 0.19,0.19c-0.01,1.14 -0.01,2.29 0,3.43c0,0.14 -0.03,0.19 -0.18,0.19c-1.17,0 -2.33,0 -3.49,0c-0.15,0 -0.18,-0.04 -0.18,-0.18c0,-0.58 0,-1.16 0,-1.74l0,0z" fill="#f7af32" id="svg_8"/>
  <path d="m19.24,18.22l3.83,0l0,0.21c0,1.13 0,2.25 0.01,3.38c0,0.16 -0.04,0.22 -0.21,0.21c-1.15,0 -2.3,0 -3.45,0c-0.12,0 -0.19,0 -0.19,-0.15c0,-1.18 0,-2.35 0,-3.53c0,-0.03 0.01,-0.07 0.01,-0.12l0,0z" fill="#f7af32" id="svg_9"/>
  <path d="m19.25,25.92l3.82,0c0,0.07 0,0.14 0,0.2c0,1.13 0,2.26 0.01,3.39c0,0.15 -0.04,0.21 -0.21,0.21c-1.15,-0.01 -2.3,-0.01 -3.45,-0.01c-0.12,0 -0.19,0 -0.19,-0.15c0,-1.18 0,-2.35 0,-3.53c0,-0.03 0.01,-0.07 0.02,-0.11l0,0z" fill="#f7af32" id="svg_10"/>
 </g>
</svg>