<?xml version="1.0"?>
<svg width="38" height="38" xmlns="http://www.w3.org/2000/svg" xmlns:svg="http://www.w3.org/2000/svg">
 <g class="layer">
  <title>Layer 1</title>
  <path d="m17.8,0c0.8,0 1.59,0 2.38,0c0.11,0.02 0.21,0.05 0.32,0.06c0.86,0.13 1.72,0.2 2.56,0.39c11.52,2.48 18.03,14.99 13.47,25.86c-3.56,8.49 -12.49,13.17 -21.54,11.27c-7.5,-1.57 -13.41,-7.71 -14.7,-15.3c-0.12,-0.69 -0.2,-1.39 -0.29,-2.09c0,-0.79 0,-1.58 0,-2.37c0.12,-0.84 0.21,-1.69 0.37,-2.53c1.41,-7.57 7.73,-13.75 15.31,-15c0.71,-0.11 1.42,-0.19 2.12,-0.29zm17.71,19.02c0.03,-9.08 -7.38,-16.51 -16.5,-16.54c-9.07,-0.04 -16.5,7.38 -16.54,16.51c-0.03,9.07 7.39,16.51 16.51,16.54c9.06,0.04 16.5,-7.38 16.53,-16.51z" fill="#6d9bc3" id="svg_1"/>
  <path d="m26.52,25.71c-0.63,0.56 -1.23,1.09 -1.85,1.63c-0.86,-0.97 -1.7,-1.92 -2.54,-2.88c-1.38,-1.58 -2.77,-3.16 -4.15,-4.74c-0.12,-0.14 -0.22,-0.34 -0.22,-0.52c-0.02,-3.75 -0.01,-7.5 -0.01,-11.24c0,-0.08 0.01,-0.15 0.01,-0.26l2.48,0c0,0.15 0,0.29 0,0.43c0,3.34 0,6.68 -0.01,10.03c0,0.28 0.08,0.48 0.27,0.69c1.94,2.2 3.88,4.42 5.83,6.63c0.05,0.06 0.11,0.13 0.19,0.23l0,0z" fill="#6d9bc3" id="svg_2"/>
 </g>
</svg>