<svg width="136" height="50" viewBox="0 0 136 50" fill="none" xmlns="http://www.w3.org/2000/svg">
<path d="M10.2257 1.85591V33.0044H8.3674V1.85591H0V0H18.5881V1.85591H10.2257Z" fill="white"/>
<path d="M17.1024 6.10331C17.4652 6.4606 17.649 6.89232 17.649 7.40344C17.649 7.91456 17.4652 8.36613 17.1024 8.72342C16.7397 9.08071 16.3025 9.25935 15.7907 9.25935C15.2789 9.25935 14.8417 9.08071 14.4789 8.72342C14.1162 8.36613 13.9324 7.92449 13.9324 7.40344C13.9324 6.8824 14.1162 6.4606 14.4789 6.10331C14.8417 5.74603 15.2789 5.56738 15.7907 5.56738C16.3025 5.56738 16.7348 5.74603 17.1024 6.10331ZM16.7198 12.7479V33.0041H14.8615V12.7479H16.7198Z" fill="white"/>
<path d="M37.7427 28.1363L39.7054 28.836C39.3476 29.3323 38.9402 29.8037 38.488 30.2602C36.2719 32.4734 33.5938 33.58 30.4535 33.58C27.3133 33.58 24.655 32.4734 22.4389 30.2602C20.2228 28.047 19.1148 25.3723 19.1148 22.2361C19.1148 19.0999 20.2228 16.4451 22.4389 14.2319C24.655 12.0187 27.3282 10.9121 30.4535 10.9121C33.5789 10.9121 36.2719 12.0187 38.488 14.2319C38.9402 14.6835 39.3476 15.1549 39.7054 15.6362L37.7427 16.3558C37.534 16.1077 37.3154 15.8595 37.0819 15.6114C35.2484 13.7952 33.0422 12.8871 30.4535 12.8871C27.8648 12.8871 25.6736 13.8002 23.8451 15.6214C22.0116 17.4425 21.0973 19.6458 21.0973 22.2312C21.0973 24.8165 22.0116 27.0248 23.8451 28.8509C25.6785 30.682 27.8797 31.5951 30.4535 31.5951C33.0273 31.5951 35.2533 30.682 37.0819 28.8509C37.3154 28.6177 37.534 28.3745 37.7427 28.1264V28.1363Z" fill="white"/>
<path d="M52.5646 12.7476L47.566 18.9356L55.5408 33.0038H53.2254L46.3486 20.4193L44.5301 22.6673V33.0038H42.6718V4.12305H44.5301V19.6948L50.1696 12.7426H52.5646V12.7476Z" fill="white"/>
<path d="M60.5543 29.2083C62.3033 30.8012 64.3802 31.6001 66.7901 31.6001C69.3788 31.6001 71.5899 30.6871 73.4184 28.856C73.6519 28.6227 73.8706 28.3796 74.0792 28.1315L76.0419 28.8311C75.6842 29.3274 75.2767 29.7988 74.8246 30.2553C72.6085 32.4685 69.9303 33.5751 66.7901 33.5751C63.6498 33.5751 60.9915 32.4685 58.7755 30.2553C56.5594 28.0421 55.4514 25.3674 55.4514 22.2313C55.4514 19.0951 56.5594 16.4402 58.7755 14.227C60.9915 12.0138 63.6647 10.9072 66.7901 10.9072C69.4732 10.9072 71.8234 11.7111 73.8358 13.3189C74.1637 13.5918 74.4966 13.8945 74.8295 14.227C74.9538 14.3511 75.068 14.4751 75.1823 14.5992L73.7762 16.0035L60.5592 29.2033L60.5543 29.2083ZM72.4097 14.7481C70.7999 13.5124 68.9266 12.8922 66.7901 12.8922C64.2163 12.8922 62.0101 13.8052 60.1816 15.6264C58.3481 17.4476 57.4339 19.6508 57.4339 22.2362C57.4339 24.37 58.055 26.2359 59.2922 27.8486L72.4097 14.7481Z" fill="white"/>
<path d="M81.4082 12.7476V4.12305H83.2665V12.7476H87.3956V14.6035H83.2665V33.0038H81.4082V14.6035H77.2792V12.7476H81.4082Z" fill="white"/>
<path d="M107.32 7.78624V6.32235H111.618V22.1026C111.618 26.2262 110.495 29.4121 108.249 31.655C105.949 33.6747 103.176 34.687 99.9268 34.687C96.6772 34.687 93.9046 33.6747 91.6041 31.655C91.137 31.1886 90.3867 30.2408 89.3532 28.8067L93.6065 27.2783C94.158 27.9382 94.5307 28.365 94.7195 28.5585C96.1654 29.9877 97.8995 30.7023 99.9268 30.7023C103.325 30.7023 105.681 28.4742 106.992 24.018C105.656 26.6034 103.365 27.8936 100.116 27.8936C96.866 27.8936 94.0934 26.782 91.8028 24.5539C89.5122 22.3259 88.3644 19.5916 88.3644 16.3463C88.3644 13.1009 89.5122 10.3319 91.8028 8.04428C94.0934 5.75665 96.866 4.61035 100.116 4.61035C102.853 4.61035 105.258 5.66733 107.325 7.78624H107.32ZM107.3 14.6988C107.037 13.3937 106.376 12.2077 105.318 11.1507C103.887 9.70666 102.153 8.98712 100.111 8.98712C98.0684 8.98712 96.3343 9.70666 94.8934 11.1507C93.4525 12.5947 92.737 14.3266 92.737 16.3512C92.737 18.3758 93.4574 20.1226 94.8934 21.5617C96.3294 23.0007 98.0684 23.7153 100.111 23.7153C102.153 23.7153 103.882 23.0007 105.318 21.5716C106.376 20.5146 107.037 19.3435 107.3 18.0632V14.7037V14.6988Z" fill="#DB6565"/>
<path d="M124.249 7.06641C127.498 7.06641 130.271 8.2127 132.562 10.5103C134.852 12.8078 136 15.5768 136 18.8222C136 22.0675 134.852 24.8365 132.562 27.1341C130.271 29.4316 127.498 30.5779 124.249 30.5779C120.999 30.5779 118.247 29.4316 115.946 27.1341C113.646 24.8365 112.498 22.0675 112.498 18.8222C112.498 15.5768 113.646 12.8078 115.946 10.5103C118.247 8.2127 121.014 7.06641 124.249 7.06641ZM119.032 13.6266C117.591 15.0706 116.875 16.8025 116.875 18.8271C116.875 20.8517 117.596 22.5935 119.032 24.0227C120.473 25.4518 122.207 26.1664 124.249 26.1664C126.291 26.1664 128.025 25.4518 129.466 24.0227C130.907 22.5935 131.623 20.8617 131.623 18.8271C131.623 16.7926 130.902 15.0706 129.466 13.6266C128.025 12.1826 126.291 11.463 124.249 11.463C122.207 11.463 120.473 12.1826 119.032 13.6266Z" fill="#DB6565"/>
<path d="M9.98235 42.0859H8.48675V45.1775C8.48675 45.376 8.50662 45.5348 8.54141 45.6638C8.58116 45.7928 8.63581 45.8921 8.70537 45.9615C8.77494 46.031 8.86438 46.0806 8.95878 46.1104C9.05816 46.1352 9.1625 46.1501 9.27678 46.1501C9.38113 46.1501 9.49541 46.1352 9.60969 46.1054C9.72894 46.0757 9.83825 46.036 9.9426 45.9814L9.97738 46.6513C9.84322 46.7059 9.69913 46.7456 9.55006 46.7704C9.401 46.7952 9.242 46.8101 9.06809 46.8101C8.924 46.8101 8.77494 46.7902 8.61594 46.7555C8.45694 46.7158 8.30787 46.6463 8.17372 46.5421C8.03956 46.4379 7.92528 46.294 7.84081 46.1104C7.75137 45.9268 7.71162 45.6936 7.71162 45.3958V42.0909H6.61353V41.4458H7.71162V39.9521H8.48178V41.4458H9.97738V42.0909L9.98235 42.0859Z" fill="white"/>
<path d="M16.4517 44.0846C16.4517 44.4866 16.3821 44.8538 16.243 45.1962C16.1039 45.5336 15.9101 45.8314 15.6617 46.0795C15.4132 46.3276 15.1151 46.5211 14.7673 46.6601C14.4195 46.799 14.0369 46.8685 13.6245 46.8685C13.2121 46.8685 12.8394 46.799 12.4916 46.6601C12.1438 46.5211 11.8457 46.3276 11.5972 46.0795C11.3488 45.8314 11.155 45.5386 11.0159 45.1962C10.8768 44.8538 10.8072 44.4866 10.8072 44.0846C10.8072 43.6827 10.8768 43.3155 11.0159 42.9731C11.155 42.6307 11.3488 42.3379 11.5972 42.0898C11.8457 41.8417 12.1438 41.6481 12.4916 41.5092C12.8394 41.3703 13.217 41.3008 13.6245 41.3008C14.0319 41.3008 14.4195 41.3703 14.7673 41.5092C15.1151 41.6481 15.4132 41.8417 15.6617 42.0898C15.9101 42.3379 16.1039 42.6307 16.243 42.9731C16.3821 43.3105 16.4517 43.6827 16.4517 44.0846ZM15.6368 44.0846C15.6368 43.7919 15.5871 43.514 15.4927 43.251C15.3983 42.988 15.2642 42.7647 15.0903 42.5711C14.9164 42.3776 14.7027 42.2238 14.4543 42.1146C14.2058 42.0005 13.9276 41.9459 13.6145 41.9459C13.3015 41.9459 13.0282 42.0005 12.7798 42.1146C12.5363 42.2287 12.3227 42.3826 12.1488 42.5711C11.9748 42.7647 11.8407 42.988 11.7463 43.251C11.6519 43.509 11.6022 43.7869 11.6022 44.0846C11.6022 44.3824 11.6469 44.6553 11.7463 44.9183C11.8407 45.1764 11.9748 45.4046 12.1488 45.5982C12.3227 45.7917 12.5314 45.9406 12.7798 46.0497C13.0282 46.1589 13.3015 46.2135 13.6145 46.2135C13.9276 46.2135 14.2058 46.1589 14.4543 46.0497C14.7027 45.9406 14.9164 45.7917 15.0903 45.5982C15.2642 45.4046 15.3983 45.1813 15.4927 44.9183C15.5871 44.6553 15.6368 44.3824 15.6368 44.0846Z" fill="white"/>
<path d="M21.9621 46.7353C21.9472 46.5914 21.9372 46.4326 21.9273 46.2589C21.9173 46.0852 21.9173 45.9413 21.9173 45.8272H21.8925C21.7434 46.1349 21.495 46.3879 21.1571 46.5815C20.8192 46.775 20.4565 46.8693 20.0789 46.8693C19.4081 46.8693 18.9013 46.6708 18.5684 46.2689C18.2305 45.8669 18.0616 45.3409 18.0616 44.6859V41.4355H18.8317V44.3683C18.8317 44.6462 18.8566 44.8993 18.9013 45.1275C18.946 45.3558 19.0255 45.5493 19.1348 45.7081C19.2441 45.8719 19.3932 45.9959 19.5771 46.0852C19.7609 46.1746 19.9944 46.2192 20.2727 46.2192C20.4764 46.2192 20.6752 46.1795 20.8689 46.0952C21.0627 46.0108 21.2317 45.8868 21.3857 45.718C21.5348 45.5493 21.659 45.331 21.7484 45.0729C21.8378 44.8149 21.8826 44.5072 21.8826 44.1499V41.4355H22.6527V45.5692C22.6527 45.7131 22.6527 45.8967 22.6627 46.1249C22.6676 46.3532 22.6825 46.5567 22.6974 46.7353H21.9621Z" fill="white"/>
<path d="M24.68 42.051C24.67 41.8227 24.6601 41.6193 24.6452 41.4406H25.3806C25.3955 41.5845 25.4054 41.7433 25.4154 41.917C25.4253 42.0907 25.4253 42.2346 25.4253 42.3487H25.4501C25.5992 42.0411 25.8278 41.788 26.1309 41.5945C26.434 41.4009 26.7718 41.3066 27.1495 41.3066C27.2488 41.3066 27.3383 41.3066 27.4178 41.3166C27.4973 41.3265 27.5768 41.3414 27.6612 41.3612L27.5569 42.0957C27.5122 42.0808 27.4376 42.0659 27.3283 42.051C27.224 42.0361 27.1147 42.0262 27.0103 42.0262C26.8066 42.0262 26.6079 42.0659 26.4191 42.1403C26.2302 42.2147 26.0663 42.3338 25.9271 42.4976C25.788 42.6614 25.6737 42.8648 25.5893 43.1179C25.4998 43.371 25.4601 43.6737 25.4601 44.026V46.7354H24.6899V42.6018C24.6899 42.4579 24.6899 42.2743 24.68 42.046V42.051Z" fill="white"/>
<path d="M29.7133 39.4003C29.7133 39.5591 29.6587 39.6882 29.5444 39.7924C29.4301 39.8966 29.3059 39.9462 29.1717 39.9462C29.0376 39.9462 28.9133 39.8966 28.7991 39.7924C28.6848 39.6882 28.6301 39.5591 28.6301 39.4003C28.6301 39.2416 28.6848 39.1125 28.7991 39.0083C28.9133 38.9041 29.0376 38.8545 29.1717 38.8545C29.3059 38.8545 29.4301 38.9041 29.5444 39.0083C29.6587 39.1125 29.7133 39.2416 29.7133 39.4003ZM29.5543 46.7347H28.7842V41.4349H29.5543V46.7347Z" fill="white"/>
<path d="M34.4287 42.6959C34.3144 42.4776 34.1455 42.2989 33.9119 42.16C33.6834 42.0211 33.42 41.9516 33.1269 41.9516C32.9927 41.9516 32.8536 41.9665 32.7194 41.9962C32.5853 42.026 32.4611 42.0756 32.3567 42.1451C32.2524 42.2146 32.1679 42.2989 32.1033 42.4081C32.0387 42.5123 32.0089 42.6364 32.0089 42.7803C32.0089 43.0284 32.1132 43.2219 32.317 43.351C32.5207 43.4849 32.8437 43.5941 33.2809 43.6834C33.907 43.8125 34.3691 44.001 34.6672 44.2442C34.9653 44.4923 35.1144 44.8198 35.1144 45.2366C35.1144 45.5393 35.0548 45.7924 34.9405 46.0008C34.8262 46.2093 34.6722 46.378 34.4833 46.512C34.2945 46.6459 34.0809 46.7402 33.8424 46.7948C33.6039 46.8494 33.3654 46.8792 33.1219 46.8792C32.7194 46.8792 32.3319 46.7948 31.9542 46.6311C31.5766 46.4673 31.2686 46.2043 31.0251 45.852L31.6362 45.4004C31.7704 45.6336 31.9741 45.8321 32.2375 45.9909C32.5008 46.1497 32.794 46.2291 33.112 46.2291C33.2759 46.2291 33.4349 46.2142 33.589 46.1844C33.743 46.1547 33.8722 46.1001 33.9865 46.0257C34.1008 45.9512 34.1902 45.852 34.2597 45.7378C34.3293 45.6187 34.3641 45.4748 34.3641 45.3012C34.3641 45.0233 34.2299 44.8148 33.9616 44.6709C33.6933 44.532 33.3057 44.403 32.7989 44.2789C32.6399 44.2392 32.471 44.1946 32.2921 44.135C32.1132 44.0755 31.9493 43.9961 31.8002 43.8869C31.6512 43.7777 31.522 43.6388 31.4276 43.475C31.3282 43.3113 31.2785 43.1028 31.2785 42.8547C31.2785 42.5818 31.3331 42.3486 31.4375 42.16C31.5418 41.9714 31.6859 41.8077 31.8648 41.6836C32.0437 41.5596 32.2424 41.4653 32.471 41.4057C32.6996 41.3462 32.9331 41.3164 33.1716 41.3164C33.5393 41.3164 33.902 41.4008 34.2498 41.5645C34.5976 41.7283 34.856 41.9665 35.0299 42.2642L34.4386 42.7059L34.4287 42.6959Z" fill="white"/>
<path d="M38.0956 41.5886C38.4086 41.3951 38.7564 41.3008 39.144 41.3008C39.2881 41.3008 39.4372 41.3157 39.5912 41.3454C39.7452 41.3752 39.8993 41.4348 40.0434 41.5191C40.1924 41.6084 40.3266 41.7226 40.4508 41.8665C40.575 42.0104 40.6843 42.194 40.7738 42.4223C40.9576 42.06 41.2011 41.7821 41.5141 41.5886C41.8271 41.3951 42.1998 41.3008 42.6321 41.3008C43.3029 41.3008 43.8097 41.4993 44.1475 41.9012C44.4854 42.3032 44.6544 42.8292 44.6544 43.4842V46.7345H43.8842V43.8018C43.8842 43.246 43.7799 42.7944 43.5712 42.457C43.3625 42.1196 43.0097 41.9459 42.5128 41.9459C42.2346 41.9459 41.9961 42.0005 41.8023 42.1146C41.6085 42.2287 41.4545 42.3776 41.3352 42.5612C41.216 42.7448 41.1315 42.9532 41.0818 43.1914C41.0272 43.4247 41.0023 43.6678 41.0023 43.9159V46.7345H40.2322V43.643C40.2322 43.385 40.2123 43.1517 40.1775 42.9433C40.1427 42.7349 40.0732 42.5513 39.9788 42.4074C39.8844 42.2585 39.7552 42.1493 39.5862 42.0699C39.4223 41.9905 39.2086 41.9508 38.9502 41.9508C38.7664 41.9508 38.5875 41.9905 38.3987 42.0749C38.2148 42.1593 38.0459 42.2833 37.9018 42.452C37.7528 42.6208 37.6335 42.8391 37.5441 43.0971C37.4546 43.3552 37.4099 43.6628 37.4099 44.0201V46.7345H36.6397V42.6009C36.6397 42.457 36.6398 42.2734 36.6298 42.0451C36.6199 41.8169 36.6099 41.6134 36.595 41.4348H37.3304C37.3453 41.5787 37.3553 41.7375 37.3652 41.9111C37.3751 42.0848 37.3751 42.2287 37.3751 42.3429H37.4C37.549 42.0352 37.7826 41.7821 38.0956 41.5886Z" fill="white"/>
<path d="M50.9349 41.5886C51.2479 41.3951 51.5957 41.3008 51.9833 41.3008C52.1274 41.3008 52.2765 41.3157 52.4305 41.3454C52.5845 41.3752 52.7386 41.4348 52.8826 41.5191C53.0317 41.6084 53.1659 41.7226 53.2901 41.8665C53.4143 42.0104 53.5236 42.194 53.6131 42.4223C53.7969 42.06 54.0404 41.7821 54.3534 41.5886C54.6664 41.3951 55.0391 41.3008 55.4714 41.3008C56.1422 41.3008 56.649 41.4993 56.9868 41.9012C57.3247 42.3032 57.4937 42.8292 57.4937 43.4842V46.7345H56.7235V43.8018C56.7235 43.246 56.6192 42.7944 56.4105 42.457C56.2018 42.1196 55.849 41.9459 55.3521 41.9459C55.0739 41.9459 54.8354 42.0005 54.6416 42.1146C54.4478 42.2287 54.2938 42.3776 54.1745 42.5612C54.0553 42.7448 53.9708 42.9532 53.9211 43.1914C53.8665 43.4247 53.8416 43.6678 53.8416 43.9159V46.7345H53.0715V43.643C53.0715 43.385 53.0516 43.1517 53.0168 42.9433C52.982 42.7349 52.9125 42.5513 52.8181 42.4074C52.7236 42.2585 52.5945 42.1493 52.4255 42.0699C52.2616 41.9905 52.0479 41.9508 51.7895 41.9508C51.6057 41.9508 51.4268 41.9905 51.238 42.0749C51.0541 42.1593 50.8852 42.2833 50.7411 42.452C50.5921 42.6208 50.4728 42.8391 50.3834 43.0971C50.2939 43.3552 50.2492 43.6628 50.2492 44.0201V46.7345H49.479V42.6009C49.479 42.457 49.479 42.2734 49.4691 42.0451C49.4592 41.8169 49.4492 41.6134 49.4343 41.4348H50.1697C50.1846 41.5787 50.1945 41.7375 50.2045 41.9111C50.2144 42.0848 50.2144 42.2287 50.2144 42.3429H50.2393C50.3883 42.0352 50.6219 41.7821 50.9349 41.5886Z" fill="white"/>
<path d="M62.8301 43.3056C62.8301 42.849 62.7109 42.5066 62.4674 42.2833C62.2239 42.06 61.8761 41.9459 61.414 41.9459C61.096 41.9459 60.8028 42.0005 60.5296 42.1146C60.2563 42.2287 60.0277 42.3776 59.8389 42.5662L59.4066 42.0551C59.6252 41.8367 59.9134 41.6531 60.2712 41.5142C60.6289 41.3752 61.0364 41.3008 61.4885 41.3008C61.7767 41.3008 62.045 41.3405 62.2935 41.4199C62.5419 41.4993 62.7605 41.6184 62.9494 41.7772C63.1382 41.936 63.2872 42.1345 63.3916 42.3776C63.4959 42.6208 63.5506 42.9036 63.5506 43.2262V45.5485C63.5506 45.752 63.5605 45.9654 63.5754 46.1837C63.5903 46.4021 63.6152 46.5857 63.645 46.7395H62.9543C62.9295 46.6105 62.9146 46.4715 62.8997 46.3227C62.8848 46.1738 62.8748 46.0249 62.8748 45.881H62.85C62.6065 46.2333 62.3332 46.4914 62.0301 46.6452C61.7221 46.799 61.3544 46.8784 60.9271 46.8784C60.7233 46.8784 60.5147 46.8487 60.296 46.7941C60.0824 46.7395 59.8836 46.6452 59.7048 46.5162C59.5259 46.3872 59.3818 46.2184 59.2625 46.015C59.1433 45.8115 59.0886 45.5585 59.0886 45.2657C59.0886 44.8588 59.193 44.5313 59.4017 44.2931C59.6103 44.0549 59.8886 43.8762 60.2364 43.7571C60.5842 43.638 60.9817 43.5636 61.4339 43.5289C61.8811 43.4941 62.3481 43.4792 62.8351 43.4792V43.3105L62.8301 43.3056ZM62.6015 44.0846C62.2835 44.0846 61.9655 44.0995 61.6426 44.1243C61.3196 44.1492 61.0314 44.2037 60.7681 44.2831C60.5097 44.3625 60.296 44.4767 60.1271 44.6305C59.9631 44.7794 59.8787 44.9828 59.8787 45.2309C59.8787 45.4195 59.9134 45.5783 59.988 45.7073C60.0575 45.8363 60.1569 45.9406 60.2762 46.02C60.3954 46.0993 60.5296 46.1539 60.6786 46.1887C60.8277 46.2234 60.9768 46.2383 61.1258 46.2383C61.3991 46.2383 61.6376 46.1936 61.8513 46.0944C62.0649 46.0001 62.2388 45.8711 62.3829 45.7073C62.527 45.5436 62.6363 45.36 62.7109 45.1466C62.7854 44.9332 62.8251 44.7149 62.8251 44.4767V44.0797H62.5966L62.6015 44.0846Z" fill="white"/>
<path d="M66.2337 41.4406C66.2486 41.5845 66.2585 41.7433 66.2685 41.917C66.2784 42.0907 66.2784 42.2346 66.2784 42.3487H66.3033C66.4523 42.0411 66.7008 41.788 67.0386 41.5945C67.3765 41.4009 67.7392 41.3066 68.1169 41.3066C68.7876 41.3066 69.2945 41.5051 69.6323 41.9071C69.9702 42.309 70.1392 42.835 70.1392 43.4901V46.7404H69.369V43.8077C69.369 43.5298 69.3441 43.2767 69.2994 43.0484C69.2547 42.8202 69.1752 42.6266 69.0659 42.4678C68.9566 42.3041 68.8075 42.18 68.6237 42.0907C68.4398 42.0014 68.2063 41.9567 67.9281 41.9567C67.7243 41.9567 67.5256 41.9964 67.3318 42.0808C67.138 42.1651 66.9691 42.2892 66.815 42.4579C66.666 42.6266 66.5418 42.845 66.4523 43.103C66.3629 43.361 66.3182 43.6687 66.3182 44.026V46.7404H65.548V42.6068C65.548 42.4629 65.548 42.2793 65.5381 42.051C65.5281 41.8227 65.5182 41.6193 65.5033 41.4406H66.2387H66.2337Z" fill="white"/>
<path d="M75.4707 43.3056C75.4707 42.849 75.3514 42.5066 75.1079 42.2833C74.8645 42.06 74.5167 41.9459 74.0546 41.9459C73.7366 41.9459 73.4434 42.0005 73.1701 42.1146C72.8968 42.2287 72.6683 42.3776 72.4795 42.5662L72.0472 42.0551C72.2658 41.8367 72.554 41.6531 72.9118 41.5142C73.2695 41.3752 73.6769 41.3008 74.1291 41.3008C74.4173 41.3008 74.6856 41.3405 74.934 41.4199C75.1825 41.4993 75.4011 41.6184 75.5899 41.7772C75.7787 41.936 75.9278 42.1345 76.0321 42.3776C76.1365 42.6208 76.1911 42.9036 76.1911 43.2262V45.5485C76.1911 45.752 76.2011 45.9654 76.216 46.1837C76.2309 46.4021 76.2557 46.5857 76.2855 46.7395H75.5949C75.57 46.6105 75.5551 46.4715 75.5402 46.3227C75.5253 46.1738 75.5154 46.0249 75.5154 45.881H75.4905C75.2471 46.2333 74.9738 46.4914 74.6707 46.6452C74.3626 46.799 73.9949 46.8784 73.5676 46.8784C73.3639 46.8784 73.1552 46.8487 72.9366 46.7941C72.7229 46.7395 72.5242 46.6452 72.3453 46.5162C72.1664 46.3872 72.0223 46.2184 71.9031 46.015C71.7838 45.8115 71.7292 45.5585 71.7292 45.2657C71.7292 44.8588 71.8335 44.5313 72.0422 44.2931C72.2509 44.0549 72.5292 43.8762 72.877 43.7571C73.2248 43.638 73.6223 43.5636 74.0744 43.5289C74.5216 43.4941 74.9887 43.4792 75.4756 43.4792V43.3105L75.4707 43.3056ZM75.2421 44.0846C74.9241 44.0846 74.6061 44.0995 74.2831 44.1243C73.9602 44.1492 73.672 44.2037 73.4086 44.2831C73.1503 44.3625 72.9366 44.4767 72.7677 44.6305C72.6037 44.7794 72.5192 44.9828 72.5192 45.2309C72.5192 45.4195 72.554 45.5783 72.6285 45.7073C72.6981 45.8363 72.7975 45.9406 72.9167 46.02C73.036 46.0993 73.1701 46.1539 73.3192 46.1887C73.4683 46.2234 73.6173 46.2383 73.7664 46.2383C74.0397 46.2383 74.2782 46.1936 74.4918 46.0944C74.7055 46.0001 74.8794 45.8711 75.0235 45.7073C75.1676 45.5436 75.2769 45.36 75.3514 45.1466C75.4259 44.9332 75.4657 44.7149 75.4657 44.4767V44.0797H75.2371L75.2421 44.0846Z" fill="white"/>
<path d="M78.4618 47.8023C78.6755 48.0753 78.9637 48.3035 79.3314 48.4921C79.6991 48.6807 80.0866 48.7749 80.4941 48.7749C80.8717 48.7749 81.1947 48.7204 81.458 48.6112C81.7213 48.502 81.935 48.3531 82.099 48.1646C82.2629 47.976 82.3822 47.7527 82.4567 47.5046C82.5312 47.2515 82.571 46.9835 82.571 46.6957V45.6983H82.5462C82.3424 46.0308 82.0542 46.2888 81.6766 46.4675C81.304 46.6511 80.9214 46.7404 80.5388 46.7404C80.1214 46.7404 79.7487 46.6709 79.4109 46.5369C79.073 46.403 78.7898 46.2144 78.5513 45.9762C78.3128 45.738 78.1289 45.4551 77.9948 45.1227C77.8606 44.7902 77.796 44.4329 77.796 44.0458C77.796 43.6588 77.8606 43.3114 77.9948 42.9839C78.1289 42.6514 78.3128 42.3636 78.5513 42.1105C78.7898 41.8575 79.078 41.6639 79.4109 41.52C79.7438 41.3761 80.1214 41.3066 80.5388 41.3066C80.9263 41.3066 81.304 41.396 81.6716 41.5796C82.0443 41.7632 82.3325 42.0212 82.5462 42.3587H82.571V41.4406H83.3412V46.6908C83.3412 46.9786 83.3014 47.2813 83.2219 47.6088C83.1424 47.9313 82.9933 48.2291 82.7797 48.502C82.566 48.7749 82.2729 48.9982 81.9002 49.1819C81.5276 49.3655 81.0506 49.4548 80.4593 49.4548C79.9674 49.4548 79.5003 49.3605 79.0531 49.1719C78.6059 48.9834 78.2233 48.7204 77.9103 48.3928L78.4668 47.8023H78.4618ZM78.6109 44.021C78.6109 44.2989 78.6556 44.5619 78.745 44.815C78.8345 45.0631 78.9637 45.2815 79.1376 45.47C79.3115 45.6586 79.5152 45.8075 79.7686 45.9166C80.0171 46.0258 80.3003 46.0804 80.6183 46.0804C80.9114 46.0804 81.1847 46.0308 81.4332 45.9315C81.6816 45.8323 81.9002 45.6933 82.0791 45.5147C82.2629 45.3361 82.4021 45.1177 82.5064 44.8646C82.6107 44.6116 82.6604 44.3287 82.6604 44.021C82.6604 43.7431 82.6107 43.4801 82.5064 43.2271C82.4021 42.9789 82.2629 42.7606 82.0791 42.572C81.9002 42.3835 81.6816 42.2346 81.4332 42.1205C81.1847 42.0063 80.9114 41.9517 80.6183 41.9517C80.3003 41.9517 80.0171 42.0063 79.7686 42.1205C79.5202 42.2346 79.3115 42.3835 79.1376 42.572C78.9637 42.7606 78.8395 42.9789 78.745 43.2271C78.6556 43.4752 78.6109 43.7382 78.6109 44.021Z" fill="white"/>
<path d="M90.1682 43.926V44.0947C90.1682 44.1543 90.1682 44.2188 90.1583 44.2883H85.7609C85.7709 44.5513 85.8206 44.7994 85.9199 45.0326C86.0193 45.2658 86.1535 45.4693 86.3274 45.643C86.5013 45.8167 86.705 45.9556 86.9385 46.0548C87.1721 46.1591 87.4255 46.2087 87.6988 46.2087C88.1012 46.2087 88.4441 46.1144 88.7372 45.9308C89.0304 45.7472 89.249 45.5338 89.3981 45.2906L89.9744 45.7422C89.6564 46.1442 89.3086 46.427 88.926 46.6007C88.5434 46.7744 88.136 46.8587 87.6938 46.8587C87.3013 46.8587 86.9385 46.7893 86.6007 46.6503C86.2628 46.5114 85.9746 46.3179 85.7361 46.0697C85.4926 45.8216 85.3038 45.5288 85.1647 45.1864C85.0256 44.844 84.956 44.4768 84.956 44.0749C84.956 43.6729 85.0256 43.3057 85.1597 42.9633C85.2939 42.6209 85.4827 42.3281 85.7262 42.08C85.9696 41.8319 86.2528 41.6384 86.5758 41.4994C86.8988 41.3605 87.2516 41.291 87.6292 41.291C88.0466 41.291 88.4093 41.3605 88.7273 41.4994C89.0453 41.6384 89.3086 41.8269 89.5223 42.0651C89.7359 42.3033 89.8949 42.5812 90.0043 42.8988C90.1136 43.2164 90.1682 43.5538 90.1682 43.9161V43.926ZM89.3881 43.6779C89.3633 43.1817 89.2043 42.7648 88.9062 42.4373C88.608 42.1098 88.1807 41.946 87.6292 41.946C87.3708 41.946 87.1323 41.9957 86.9137 42.09C86.6951 42.1842 86.5013 42.3133 86.3373 42.477C86.1733 42.6408 86.0392 42.8244 85.9398 43.0328C85.8404 43.2412 85.7858 43.4596 85.7709 43.6829H89.3881V43.6779Z" fill="white"/>
<path d="M93.2836 41.5886C93.5967 41.3951 93.9445 41.3008 94.3321 41.3008C94.4762 41.3008 94.6252 41.3157 94.7792 41.3454C94.9333 41.3752 95.0873 41.4348 95.2314 41.5191C95.3805 41.6084 95.5146 41.7226 95.6388 41.8665C95.7631 42.0104 95.8724 42.194 95.9618 42.4223C96.1457 42.06 96.3891 41.7821 96.7022 41.5886C97.0152 41.3951 97.3878 41.3008 97.8201 41.3008C98.4909 41.3008 98.9977 41.4993 99.3356 41.9012C99.6735 42.3032 99.8424 42.8292 99.8424 43.4842V46.7345H99.0723V43.8018C99.0723 43.246 98.9679 42.7944 98.7592 42.457C98.5505 42.1196 98.1978 41.9459 97.7009 41.9459C97.4226 41.9459 97.1841 42.0005 96.9903 42.1146C96.7966 42.2287 96.6425 42.3776 96.5233 42.5612C96.404 42.7448 96.3196 42.9532 96.2699 43.1914C96.2152 43.4247 96.1904 43.6678 96.1904 43.9159V46.7345H95.4202V43.643C95.4202 43.385 95.4003 43.1517 95.3656 42.9433C95.3308 42.7349 95.2612 42.5513 95.1668 42.4074C95.0724 42.2585 94.9432 42.1493 94.7743 42.0699C94.6103 41.9905 94.3967 41.9508 94.1383 41.9508C93.9544 41.9508 93.7756 41.9905 93.5867 42.0749C93.4029 42.1593 93.234 42.2833 93.0899 42.452C92.9408 42.6208 92.8216 42.8391 92.7321 43.0971C92.6427 43.3552 92.598 43.6628 92.598 44.0201V46.7345H91.8278V42.6009C91.8278 42.457 91.8278 42.2734 91.8179 42.0451C91.8079 41.8169 91.798 41.6134 91.7831 41.4348H92.5185C92.5334 41.5787 92.5433 41.7375 92.5532 41.9111C92.5632 42.0848 92.5632 42.2287 92.5632 42.3429H92.588C92.7371 42.0352 92.9706 41.7821 93.2836 41.5886Z" fill="white"/>
<path d="M106.66 43.926V44.0947C106.66 44.1543 106.66 44.2188 106.65 44.2883H102.252C102.262 44.5513 102.312 44.7994 102.411 45.0326C102.511 45.2658 102.645 45.4693 102.819 45.643C102.993 45.8167 103.196 45.9556 103.43 46.0548C103.663 46.1591 103.917 46.2087 104.19 46.2087C104.593 46.2087 104.935 46.1144 105.229 45.9308C105.522 45.7472 105.74 45.5338 105.889 45.2906L106.466 45.7422C106.148 46.1442 105.8 46.427 105.417 46.6007C105.035 46.7744 104.627 46.8587 104.185 46.8587C103.793 46.8587 103.43 46.7893 103.092 46.6503C102.754 46.5114 102.466 46.3179 102.227 46.0697C101.984 45.8216 101.795 45.5288 101.656 45.1864C101.517 44.844 101.447 44.4768 101.447 44.0749C101.447 43.6729 101.517 43.3057 101.651 42.9633C101.785 42.6209 101.974 42.3281 102.217 42.08C102.461 41.8319 102.744 41.6384 103.067 41.4994C103.39 41.3605 103.743 41.291 104.121 41.291C104.538 41.291 104.901 41.3605 105.219 41.4994C105.537 41.6384 105.8 41.8269 106.014 42.0651C106.227 42.3033 106.386 42.5812 106.496 42.8988C106.605 43.2164 106.66 43.5538 106.66 43.9161V43.926ZM105.879 43.6779C105.855 43.1817 105.696 42.7648 105.397 42.4373C105.099 42.1098 104.672 41.946 104.121 41.946C103.862 41.946 103.624 41.9957 103.405 42.09C103.186 42.1842 102.993 42.3133 102.829 42.477C102.665 42.6408 102.531 42.8244 102.431 43.0328C102.332 43.2412 102.277 43.4596 102.262 43.6829H105.879V43.6779Z" fill="white"/>
<path d="M109.01 41.4406C109.025 41.5845 109.035 41.7433 109.045 41.917C109.055 42.0907 109.055 42.2346 109.055 42.3487H109.079C109.228 42.0411 109.477 41.788 109.815 41.5945C110.153 41.4009 110.515 41.3066 110.893 41.3066C111.564 41.3066 112.071 41.5051 112.408 41.9071C112.746 42.309 112.915 42.835 112.915 43.4901V46.7404H112.145V43.8077C112.145 43.5298 112.12 43.2767 112.076 43.0484C112.031 42.8202 111.951 42.6266 111.842 42.4678C111.733 42.3041 111.584 42.18 111.4 42.0907C111.216 42.0014 110.982 41.9567 110.704 41.9567C110.5 41.9567 110.302 41.9964 110.108 42.0808C109.914 42.1651 109.745 42.2892 109.591 42.4579C109.442 42.6266 109.318 42.845 109.228 43.103C109.139 43.361 109.094 43.6687 109.094 44.026V46.7404H108.324V42.6068C108.324 42.4629 108.324 42.2793 108.314 42.051C108.304 41.8227 108.294 41.6193 108.279 41.4406H109.015H109.01Z" fill="white"/>
<path d="M117.293 42.0859H115.797V45.1775C115.797 45.376 115.817 45.5348 115.852 45.6638C115.892 45.7928 115.946 45.8921 116.016 45.9615C116.085 46.031 116.175 46.0806 116.269 46.1104C116.369 46.1352 116.473 46.1501 116.587 46.1501C116.691 46.1501 116.806 46.1352 116.92 46.1054C117.039 46.0757 117.149 46.036 117.253 45.9814L117.288 46.6513C117.154 46.7059 117.009 46.7456 116.86 46.7704C116.711 46.7952 116.552 46.8101 116.378 46.8101C116.234 46.8101 116.085 46.7902 115.926 46.7555C115.767 46.7158 115.618 46.6463 115.484 46.5421C115.35 46.4379 115.236 46.294 115.151 46.1104C115.062 45.9268 115.022 45.6936 115.022 45.3958V42.0909H113.924V41.4458H115.022V39.9521H115.792V41.4458H117.288V42.0909L117.293 42.0859Z" fill="white"/>
<path d="M125.263 40.0112C125.089 39.768 124.865 39.5745 124.592 39.4306C124.319 39.2867 123.991 39.2122 123.608 39.2122C123.409 39.2122 123.21 39.242 123.007 39.3015C122.803 39.3611 122.619 39.4554 122.45 39.5794C122.286 39.7035 122.152 39.8623 122.048 40.0509C121.943 40.2394 121.894 40.4627 121.894 40.7208C121.894 40.9788 121.943 41.1872 122.043 41.3559C122.142 41.5197 122.271 41.6636 122.43 41.7827C122.594 41.9018 122.778 41.9961 122.982 42.0705C123.186 42.145 123.404 42.2194 123.633 42.2988C123.911 42.3881 124.194 42.4874 124.473 42.5916C124.756 42.6958 125.009 42.8347 125.238 43.0034C125.461 43.1722 125.65 43.3905 125.789 43.6485C125.933 43.9115 126.003 44.2391 126.003 44.641C126.003 45.043 125.928 45.3854 125.774 45.6781C125.62 45.966 125.422 46.2091 125.178 46.3977C124.935 46.5862 124.656 46.7252 124.343 46.8145C124.03 46.9038 123.712 46.9485 123.399 46.9485C123.156 46.9485 122.917 46.9237 122.674 46.8741C122.43 46.8244 122.202 46.75 121.983 46.6508C121.765 46.5515 121.561 46.4274 121.372 46.2786C121.183 46.1297 121.019 45.956 120.875 45.7575L121.576 45.2365C121.75 45.5243 121.993 45.7625 122.306 45.956C122.619 46.1496 122.987 46.2438 123.409 46.2438C123.613 46.2438 123.822 46.2141 124.03 46.1496C124.244 46.085 124.433 45.9858 124.602 45.8568C124.771 45.7228 124.91 45.564 125.019 45.3705C125.128 45.1769 125.183 44.9536 125.183 44.6956C125.183 44.4177 125.128 44.1845 125.019 44.0009C124.91 43.8173 124.766 43.6634 124.582 43.5344C124.403 43.4104 124.194 43.3061 123.961 43.2218C123.727 43.1374 123.479 43.058 123.225 42.9737C122.962 42.8893 122.699 42.795 122.445 42.6908C122.187 42.5866 121.958 42.4477 121.755 42.2789C121.551 42.1102 121.387 41.9018 121.263 41.6487C121.139 41.4006 121.074 41.0929 121.074 40.7307C121.074 40.3436 121.153 40.0112 121.307 39.7333C121.461 39.4554 121.665 39.2222 121.914 39.0435C122.162 38.8649 122.44 38.7309 122.743 38.6465C123.047 38.5622 123.345 38.5225 123.638 38.5225C124.179 38.5225 124.646 38.6167 125.034 38.8103C125.422 39.0038 125.71 39.2321 125.909 39.4951L125.263 40.0161V40.0112Z" fill="white"/>
<path d="M128.785 46.1944C128.785 46.3532 128.731 46.4922 128.617 46.6212C128.502 46.7502 128.358 46.8098 128.174 46.8098C127.99 46.8098 127.846 46.7502 127.732 46.6212C127.618 46.4922 127.563 46.3532 127.563 46.1944C127.563 46.0356 127.618 45.8967 127.732 45.7677C127.846 45.6387 127.99 45.5791 128.174 45.5791C128.358 45.5791 128.502 45.6436 128.617 45.7677C128.731 45.8917 128.785 46.0356 128.785 46.1944Z" fill="white"/>
<path d="M131.528 46.0104H135.27V46.7349H130.713V38.7207H131.528V46.0104Z" fill="white"/>
</svg>
