<?xml version="1.0"?>
<svg width="66" height="66" xmlns="http://www.w3.org/2000/svg" xmlns:svg="http://www.w3.org/2000/svg">
 <defs>
  <clipPath id="clip0_1_869">
   <rect fill="white" height="37.85" id="svg_1" transform="translate(12.4297 13.5598)" width="37.85"/>
  </clipPath>
 </defs>
 <g class="layer">
  <title>Layer 1</title>
  <circle cx="32.77" cy="32.77" fill="#6d9bc6" id="svg_2" r="32.77"/>
  <g clip-path="url(#clip0_1_869)" id="svg_3">
   <path d="m35.8,23.3c0,1.25 0,2.41 0.01,3.57c0,0.1 0.14,0.24 0.25,0.29c1.2,0.51 2.4,1 3.61,1.5c0.99,0.41 1.38,0.8 1.79,1.83c0.25,0 0.52,-0.01 0.79,0c0.35,0.02 0.57,0.24 0.57,0.55c0.01,0.31 -0.22,0.6 -0.56,0.56c-0.57,-0.07 -0.83,0.14 -1.08,0.66c-0.51,1.09 -1.79,1.5 -2.98,1.09c-0.15,-0.05 -0.31,-0.11 -0.55,-0.2c0.5,0.98 0.97,1.88 1.45,2.82c2.51,-0.99 4.95,-0.87 7.27,0.51c1.76,1.05 2.95,2.57 3.55,4.53c1.21,3.95 -0.66,8 -4.47,9.73c-3.51,1.6 -7.85,0.24 -9.95,-3.07c-2.13,-3.33 -1.66,-8.43 2.59,-11.19c-0.22,-0.43 -0.44,-0.86 -0.69,-1.35c-0.09,0.15 -0.16,0.26 -0.22,0.37c-1.5,2.64 -3,5.27 -4.49,7.92c-0.2,0.37 -0.45,0.53 -0.88,0.52c-1.02,-0.03 -2.05,-0.01 -3.07,-0.02c-0.23,0 -0.32,0.06 -0.35,0.3c-0.37,3.42 -2.8,6.18 -6.13,6.97c-4.63,1.11 -9.25,-2.14 -9.78,-6.87c-0.49,-4.37 2.51,-8.29 6.82,-8.92c1.54,-0.22 3.02,0 4.43,0.65c0.18,0.09 0.36,0.17 0.57,0.26c0.53,-0.82 1.06,-1.64 1.58,-2.46c0.04,-0.06 0.02,-0.19 -0.02,-0.26c-0.39,-0.7 -0.78,-1.4 -1.19,-2.09c-0.06,-0.1 -0.23,-0.18 -0.35,-0.19c-0.34,-0.02 -0.69,0 -1.03,-0.01c-0.42,-0.01 -0.66,-0.22 -0.67,-0.54c-0.01,-0.35 0.24,-0.58 0.67,-0.58c0.93,-0.01 1.87,-0.01 2.81,-0.01c0.13,0 0.26,0 0.46,0c-0.22,-0.26 -0.4,-0.44 -0.55,-0.64c-1.25,-1.64 -1.15,-3.89 0.3,-5.39c1.26,-1.32 2.55,-2.61 3.89,-3.86c0.54,-0.51 1.21,-0.87 1.84,-1.31c-0.4,-0.63 -0.27,-1.27 0.24,-1.87c0.19,-0.24 0.38,-0.49 0.58,-0.72c0.28,-0.32 0.61,-0.39 0.87,-0.18c0.27,0.23 0.28,0.54 0.01,0.89c-0.21,0.27 -0.44,0.53 -0.64,0.81c-0.08,0.11 -0.15,0.29 -0.11,0.39c0.04,0.09 0.23,0.17 0.36,0.17c2.85,0.01 5.69,0.01 8.54,0.01c0.66,-0.01 0.98,-0.51 0.73,-1.12c-0.67,-1.68 -2.01,-2.4 -3.72,-2.59c-1.18,-0.14 -2.27,0.09 -3.29,0.71c-0.38,0.23 -0.7,0.15 -0.87,-0.15c-0.18,-0.32 -0.06,-0.62 0.34,-0.84c2.29,-1.29 4.57,-1.21 6.78,0.15c1,0.62 1.63,1.57 1.92,2.72c0.19,0.75 -0.1,1.34 -0.65,1.84c-0.13,0.12 -0.27,0.3 -0.29,0.47c-0.47,3.19 -3.7,5.03 -6.66,3.77c-0.08,-0.03 -0.16,-0.06 -0.38,-0.13l0,0zm4.14,14.31c1.19,-0.47 2.39,-0.59 3.59,-0.33c4.11,0.92 6.15,5.34 4.16,9.05c-0.31,0.59 -0.79,1.1 -1.23,1.61c-0.23,0.27 -0.57,0.24 -0.79,0.03c-0.24,-0.23 -0.24,-0.51 -0.01,-0.8c0.08,-0.1 0.19,-0.19 0.28,-0.29c1.19,-1.32 1.65,-2.86 1.28,-4.59c-0.47,-2.18 -2.25,-3.75 -4.46,-3.99c-0.78,-0.08 -1.54,0.01 -2.29,0.33c0.07,0.14 0.12,0.25 0.18,0.35c0.66,1.29 1.32,2.57 1.98,3.86c0.05,0.11 0.12,0.21 0.15,0.33c0.1,0.3 0.02,0.54 -0.26,0.69c-0.28,0.14 -0.53,0.07 -0.72,-0.18c-0.06,-0.09 -0.11,-0.2 -0.16,-0.29c-0.67,-1.31 -1.34,-2.61 -2.01,-3.92c-0.05,-0.1 -0.12,-0.2 -0.18,-0.3c-1.72,1.12 -2.6,3.32 -2.14,5.28c0.72,3.04 3.67,4.68 6.65,3.71c0.46,-0.15 0.77,-0.05 0.89,0.29c0.13,0.34 -0.06,0.63 -0.52,0.78c-1.69,0.57 -3.32,0.46 -4.91,-0.34c-3.48,-1.75 -4.46,-6.49 -1.93,-9.45c0.42,-0.49 0.93,-0.91 1.41,-1.38c-0.08,-0.15 -0.17,-0.34 -0.27,-0.52c-2.9,1.72 -4.23,5.73 -2.43,9.1c1.78,3.34 5.92,4.6 9.3,2.84c3.33,-1.74 4.64,-5.95 2.84,-9.34c-1.82,-3.45 -5.83,-4.42 -8.7,-3.12c0.09,0.18 0.19,0.37 0.3,0.59l0,0zm-17.27,1.23c-1.79,-1.02 -4.33,-0.6 -5.84,0.95c-1.64,1.67 -1.94,4.22 -0.74,6.2c1.2,1.98 3.57,2.91 5.75,2.27c2.46,-0.72 3.59,-3 3.58,-4.33c-0.13,0 -0.26,0 -0.4,0c-1.49,0 -2.98,0 -4.47,0c-0.26,0 -0.53,-0.05 -0.6,-0.31c-0.05,-0.2 0.03,-0.44 0.08,-0.66c0.03,-0.11 0.13,-0.21 0.19,-0.31c0.82,-1.26 1.63,-2.53 2.45,-3.81zm17.56,-8.35c-0.21,-0.41 -0.53,-0.59 -0.87,-0.73c-1.35,-0.56 -2.7,-1.12 -4.06,-1.68c-0.59,-0.24 -0.63,-0.3 -0.62,-0.93c0.02,-1.29 0.06,-2.59 0.07,-3.89c0.01,-0.78 -0.6,-1.34 -1.38,-1.3c-0.67,0.03 -1.19,0.52 -1.22,1.24c-0.06,1.77 -0.1,3.55 -0.13,5.33c-0.02,0.76 0.26,1.15 0.96,1.45c0.89,0.37 1.77,0.73 2.66,1.1c0.98,0.4 1.95,0.81 2.94,1.2c0.71,0.28 1.48,-0.05 1.62,-0.67c-0.35,0 -0.69,0.01 -1.04,0c-0.35,-0.01 -0.57,-0.23 -0.58,-0.54c0,-0.34 0.22,-0.57 0.59,-0.58c0.33,-0.01 0.66,0 1.06,0l0,0zm-13.58,13.46c-0.38,4.15 -4.53,6.42 -8,5.39c-3.13,-0.93 -5.07,-4.33 -4.21,-7.54c0.44,-1.65 1.39,-2.94 2.87,-3.79c1.96,-1.13 3.97,-1.11 6,-0.16c0.13,-0.2 0.24,-0.38 0.36,-0.55c-2.46,-1.39 -5.88,-1.07 -8.12,1.2c-2.26,2.29 -2.65,5.75 -0.96,8.52c1.61,2.64 4.95,3.89 7.88,2.96c3.06,-0.98 4.73,-3.78 4.79,-6.03l-0.61,0l0,0zm6.68,-11.78c-0.84,0.47 -1.59,0.89 -2.33,1.32c-0.08,0.05 -0.14,0.15 -0.16,0.24c-0.47,1.98 -0.93,3.95 -1.38,5.93c-0.14,0.58 0.23,1.14 0.79,1.29c0.61,0.18 1.23,-0.18 1.4,-0.87c0.57,-2.37 1.12,-4.74 1.67,-7.12c0.05,-0.23 0.01,-0.48 0.01,-0.79l0,0zm-6.66,-6.6c-0.61,0.91 -0.56,2.38 0.26,3.27c1.1,1.2 2.27,2.33 3.41,3.49c0.06,0.05 0.22,0.09 0.28,0.06c0.62,-0.34 1.24,-0.69 1.82,-1.02c-1.94,-1.95 -3.86,-3.88 -5.77,-5.8l0,0zm4.21,2.4c0.04,0.01 0.07,0.01 0.11,0.01c0,-1.52 -0.01,-3.03 0,-4.55c0.02,-1.32 0.73,-2.26 1.9,-2.55c0.23,-0.05 0.47,-0.07 0.72,-0.1c-0.1,-0.34 -0.18,-0.63 -0.27,-0.93c-0.83,0.19 -1.57,0.52 -2.18,1.08c-0.98,0.91 -1.92,1.87 -2.88,2.81c-0.29,0.29 -0.57,0.57 -0.81,0.81c1.16,1.16 2.28,2.29 3.41,3.42zm-5.64,8.97c1.91,1.51 2.97,3.45 3.19,5.85l2.61,0c-0.15,-0.4 -0.41,-0.63 -0.77,-0.69c-0.88,-0.13 -1.49,-0.6 -1.82,-1.43c-0.25,-0.65 -0.1,-1.28 0.04,-1.93c0.05,-0.2 0.01,-0.46 -0.09,-0.65c-0.39,-0.75 -0.83,-1.48 -1.25,-2.22c-0.18,-0.33 -0.37,-0.65 -0.57,-1.01c-0.46,0.71 -0.88,1.37 -1.34,2.08l0,0zm15.3,-17.33c-0.04,0.43 0.06,0.98 -0.55,1.01c-0.69,0.02 -0.56,-0.58 -0.62,-1.01l-1.78,0c0,0.97 0,1.92 0.02,2.87c0,0.07 0.18,0.2 0.29,0.21c1.82,0.14 3.52,-1.24 3.78,-3.08l-1.14,0l0,0zm-4.09,14.88c-0.73,0 -1.38,0.01 -2.03,-0.01c-0.23,0 -0.31,0.08 -0.36,0.3c-0.4,1.74 -0.83,3.47 -1.22,5.22c-0.16,0.69 -0.42,1.31 -1.04,1.74c0.08,0.15 0.16,0.29 0.27,0.48c1.47,-2.58 2.9,-5.12 4.38,-7.73l0,0zm-12.81,4.94c-0.73,1.14 -1.44,2.23 -2.15,3.35l3.98,0c-0.18,-1.36 -0.78,-2.45 -1.83,-3.35zm6.11,-6.09c-0.71,-0.71 -1.34,-1.35 -1.97,-1.98c-0.03,-0.03 -0.08,-0.08 -0.12,-0.08c-0.58,0 -1.16,0 -1.81,0c0.4,0.7 0.74,1.31 1.09,1.92c0.04,0.07 0.15,0.13 0.23,0.13c0.83,0.01 1.65,0.01 2.58,0.01zm-5.5,5.13c1.39,1.13 2.16,2.57 2.36,4.32l0.68,0c-0.2,-2.02 -1.09,-3.62 -2.66,-4.9c-0.13,0.2 -0.24,0.37 -0.38,0.58l0,0zm12.18,-16.17l0,-2.69l-1.96,0c0.24,1.21 0.86,2.09 1.96,2.69zm-7.46,14.47c0.19,-0.81 0.35,-1.53 0.53,-2.26l-1.81,0c0.42,0.75 0.83,1.46 1.28,2.26zm7.52,-3.44c-0.2,-0.34 -0.29,-0.72 -0.53,-0.87c-0.47,-0.29 -1.02,-0.45 -1.52,-0.66l0,1.53l2.05,0l0,0z" fill="white" id="svg_4"/>
  </g>
 </g>
</svg>