<?xml version="1.0"?>
<svg width="66" height="66" xmlns="http://www.w3.org/2000/svg" xmlns:svg="http://www.w3.org/2000/svg">
 <defs>
  <clipPath id="clip0_1_850">
   <rect fill="white" height="36.72" id="svg_1" transform="translate(13.5601 14.125)" width="40.68"/>
  </clipPath>
 </defs>
 <g class="layer">
  <title>Layer 1</title>
  <circle cx="32.77" cy="32.77" fill="#6d9bc6" id="svg_2" r="32.77"/>
  <g clip-path="url(#clip0_1_850)" id="svg_3">
   <path d="m17.97,22.46c-0.67,0 -1.29,-0.01 -1.91,0.01c-0.34,0.01 -0.62,0.28 -0.66,0.63c-0.03,0.37 0,0.74 0,1.11c0.7,0.14 0.76,0.21 0.76,0.92c0,0.78 0,1.56 0,2.34c0,0.48 -0.19,0.66 -0.66,0.66c-0.43,0.01 -0.86,0.01 -1.29,0c-0.47,0 -0.65,-0.17 -0.65,-0.63c0,-0.82 0,-1.65 0,-2.47c0,-0.61 0.1,-0.73 0.76,-0.8c0,-0.29 0,-0.58 0,-0.87c0.01,-1.2 0.77,-1.95 1.98,-1.95c0.54,0 1.08,0 1.67,0c0,-0.49 -0.03,-0.95 0.01,-1.4c0.04,-0.57 0.06,-1.15 0.21,-1.69c0.68,-2.54 2.97,-4.19 5.76,-4.19c6.55,0 13.1,-0.01 19.66,0c0.56,0 1.13,0.03 1.68,0.14c2.66,0.57 4.52,2.86 4.54,5.56c0,0.51 0,1.02 0,1.58c0.52,0 1.01,0.03 1.49,-0.01c1.39,-0.1 2.26,0.89 2.16,2.14c-0.01,0.23 0,0.46 0,0.68c0.68,0.1 0.76,0.2 0.76,0.86c0,0.8 0,1.6 0,2.4c0,0.49 -0.17,0.65 -0.66,0.66c-0.46,0 -0.91,0 -1.36,-0.01c-0.36,0 -0.57,-0.19 -0.57,-0.55c-0.01,-0.92 -0.01,-1.84 0,-2.76c0,-0.38 0.19,-0.52 0.75,-0.6c0,-0.37 0.03,-0.75 -0.01,-1.13c-0.03,-0.33 -0.27,-0.59 -0.6,-0.61c-0.64,-0.04 -1.28,-0.01 -1.96,-0.01c0,0.15 0,0.28 0,0.41c0,6.54 0,13.09 0,19.63c0,1.22 -0.52,2.18 -1.58,2.79c-0.38,0.22 -0.84,0.33 -1.31,0.51c0,0.06 0,0.18 0,0.3c0,0.95 0.01,1.91 0,2.86c-0.01,1.08 -0.75,1.83 -1.83,1.86c-0.74,0.02 -1.48,0.02 -2.22,0.01c-1.13,-0.03 -1.88,-0.79 -1.88,-1.92c-0.01,-0.93 0,-1.86 0,-2.8l0,-0.37l-13.95,0c0,0.14 0,0.25 0,0.37c0,0.95 0,1.89 0,2.83c-0.01,1.06 -0.72,1.83 -1.78,1.88c-0.8,0.03 -1.6,0.03 -2.39,0c-1.05,-0.04 -1.76,-0.82 -1.76,-1.86c-0.01,-0.94 -0.01,-1.88 -0.01,-2.83c0,-0.12 0,-0.24 0,-0.38c-0.17,-0.02 -0.32,-0.04 -0.47,-0.07c-1.58,-0.26 -2.67,-1.53 -2.68,-3.12c-0.01,-1.32 0,-2.64 0,-3.96c0,-5.26 0,-10.52 0,-15.78c0,-0.11 0,-0.21 0,-0.36l0,-0.01zm15.93,22.22c4.21,0 8.42,0 12.62,-0.01c0.26,0 0.54,-0.01 0.79,-0.09c0.94,-0.29 1.46,-1.08 1.46,-2.15c0,-7.46 0,-14.93 0,-22.4c0,-2.81 -2.02,-4.85 -4.86,-4.85c-6.71,-0.01 -13.42,-0.01 -20.12,0c-2.68,0 -4.76,2.07 -4.76,4.73c-0.01,7.51 0,15.02 0,22.53c0,1.38 0.86,2.24 2.26,2.24c4.2,0 8.41,0 12.61,0l0,0zm-11.7,1.06c0,1.16 -0.02,2.29 0,3.42c0.01,0.38 0.36,0.62 0.81,0.63c0.72,0.01 1.44,0.01 2.16,0c0.53,-0.01 0.83,-0.33 0.83,-0.86c0,-0.97 0,-1.93 0,-2.9c0,-0.09 -0.02,-0.19 -0.03,-0.29l-3.78,0l0.01,0zm19.88,0c0,0.11 -0.02,0.2 -0.02,0.28c0,0.96 0,1.92 0.01,2.87c0,0.61 0.29,0.9 0.92,0.9c0.64,0 1.28,0 1.93,0c0.69,0 0.96,-0.27 0.97,-0.96c0,-0.92 0,-1.84 0,-2.76c0,-0.11 -0.02,-0.21 -0.02,-0.33l-3.79,0l0,0z" fill="white" id="svg_4"/>
   <path d="m34.05,18.8c3.58,0 7.15,0 10.73,0.01c0.27,0 0.54,0 0.79,0.06c0.78,0.18 1.33,0.87 1.37,1.67c0,0.14 0,0.28 0,0.43c0,3.7 0,7.4 0,11.1c0,0.62 -0.07,0.71 -0.69,0.84c-4.81,1.03 -9.67,1.36 -14.58,1.19c-3.05,-0.11 -6.07,-0.43 -9.06,-1.02c-0.33,-0.07 -0.65,-0.13 -0.97,-0.21c-0.38,-0.08 -0.52,-0.24 -0.52,-0.61c0,-3.89 0,-7.78 0.01,-11.67c0,-0.95 0.71,-1.68 1.67,-1.77c0.19,-0.02 0.39,-0.02 0.59,-0.02c3.56,0 7.11,0 10.66,0l0,0zm-0.05,1.05l0,0c-3.62,0 -7.24,0 -10.86,0c-0.67,0 -0.97,0.28 -0.97,0.93c0,3.61 0,7.22 0,10.84c0,0.23 0.07,0.32 0.3,0.36c1.61,0.24 3.21,0.55 4.82,0.74c3.23,0.39 6.49,0.45 9.74,0.3c2.87,-0.13 5.71,-0.47 8.52,-1.03c0.26,-0.05 0.34,-0.14 0.34,-0.41c-0.01,-3.59 0,-7.18 0,-10.77c0,-0.68 -0.29,-0.96 -0.97,-0.96c-3.64,0 -7.28,0 -10.92,0z" fill="white" id="svg_5"/>
   <path d="m34.03,38.02c1.32,0 2.65,0 3.98,0c0.82,0 1.3,0.46 1.3,1.28c0.01,0.85 0.01,1.69 0,2.54c-0.01,0.83 -0.48,1.29 -1.33,1.3c-2.63,0 -5.26,0 -7.9,0c-0.84,-0.01 -1.32,-0.46 -1.34,-1.3c-0.01,-0.84 -0.01,-1.69 0,-2.53c0.02,-0.84 0.49,-1.29 1.34,-1.29c1.31,0 2.63,0 3.95,0l0,0zm0.01,1.05c-1.29,0 -2.58,0 -3.88,-0.01c-0.27,0 -0.37,0.08 -0.37,0.36c0.02,0.76 0.02,1.53 0,2.3c0,0.26 0.08,0.37 0.36,0.37c2.59,-0.01 5.18,-0.01 7.77,0c0.26,0 0.34,-0.09 0.34,-0.34c-0.01,-0.78 -0.01,-1.56 0,-2.34c0.01,-0.28 -0.1,-0.35 -0.37,-0.35c-1.28,0.01 -2.56,0.01 -3.85,0.01l0,0z" fill="white" id="svg_6"/>
   <path d="m46.94,40.6c-0.02,1.42 -1.2,2.56 -2.6,2.53c-1.45,-0.03 -2.57,-1.18 -2.54,-2.62c0.02,-1.4 1.2,-2.52 2.63,-2.49c1.41,0.03 2.53,1.18 2.51,2.58l0,0zm-4.09,-0.02c0,0.82 0.69,1.51 1.52,1.51c0.82,0 1.51,-0.69 1.52,-1.52c0,-0.82 -0.69,-1.5 -1.53,-1.5c-0.83,0 -1.51,0.67 -1.51,1.51l0,0z" fill="white" id="svg_7"/>
   <path d="m26.28,40.6c-0.03,1.42 -1.2,2.56 -2.6,2.53c-1.45,-0.03 -2.57,-1.18 -2.55,-2.62c0.03,-1.4 1.21,-2.52 2.64,-2.49c1.4,0.03 2.53,1.18 2.51,2.58l0,0zm-4.09,-0.02c0,0.82 0.69,1.51 1.52,1.51c0.82,0 1.51,-0.69 1.52,-1.52c0,-0.82 -0.69,-1.5 -1.53,-1.5c-0.84,0 -1.51,0.67 -1.51,1.51l0,0z" fill="white" id="svg_8"/>
  </g>
 </g>
</svg>