<?xml version="1.0"?>
<svg width="65" height="66" xmlns="http://www.w3.org/2000/svg" xmlns:svg="http://www.w3.org/2000/svg">
 <defs>
  <clipPath id="clip0_1_848">
   <rect fill="white" height="55.76" id="svg_1" transform="translate(15.1294 9.67236)" width="34.74"/>
  </clipPath>
 </defs>
 <g class="layer">
  <title>Layer 1</title>
  <ellipse cx="32.5" cy="33" fill="#6d9bc6" id="svg_2" rx="32.5" ry="33"/>
  <g clip-path="url(#clip0_1_848)" id="svg_3">
   <path d="m25.77,32.25c-1.47,0.86 -2.27,1.83 -2.45,3.44c-0.25,2.16 -0.75,4.29 -1.2,6.42c-0.36,1.75 -1.85,2.85 -3.42,2.61c-1.7,-0.27 -2.88,-1.58 -2.61,-3.4c0.53,-3.63 1.28,-7.22 1.94,-10.82c0.01,-0.06 0.03,-0.11 0.06,-0.15c2.75,-3.21 5.32,-6.72 10.01,-7.11c1.63,-0.13 3.28,-0.06 4.92,-0.01c2.35,0.08 3.78,1.79 4.4,4.04c0.77,2.75 1.83,5.52 4.95,6.63c1.84,0.65 3.65,1.38 5.46,2.12c1.68,0.69 2.39,2.21 1.88,3.88c-0.46,1.49 -2.08,2.48 -3.67,1.94c-3.1,-1.05 -6.14,-2.25 -9.19,-3.44c-0.5,-0.2 -0.91,-0.64 -1.5,-1.07c-0.4,1.73 -0.85,3.36 -1.11,5.02c-0.08,0.48 0.29,1.1 0.58,1.57c3.1,4.95 6.21,9.89 9.32,14.83c0.26,0.41 0.54,0.8 0.75,1.23c0.88,1.77 0.5,3.7 -0.91,4.73c-1.47,1.08 -3.39,0.99 -4.69,-0.62c-2.61,-3.21 -5.03,-6.57 -7.52,-9.88c-0.73,-0.97 -1.46,-1.95 -2.3,-3.08c-1.56,4.69 -4.87,8.12 -7.41,12.03c-1.28,1.97 -2.68,2.55 -4.38,2.08c-1.96,-0.53 -3.13,-2.64 -2.26,-4.48c0.74,-1.57 1.69,-3.08 2.77,-4.43c2.67,-3.34 4.38,-7.04 5.06,-11.31c0.66,-4.22 1.64,-8.4 2.51,-12.78l0.01,0.01zm4.76,-7.34c-4.12,0 -8.11,2.08 -10.47,5.51c-0.26,0.38 -0.41,0.86 -0.49,1.32c-0.59,3.02 -1.11,6.06 -1.72,9.08c-0.2,0.97 -0.1,1.78 0.92,2.02c1.14,0.27 1.57,-0.48 1.75,-1.52c0.4,-2.35 0.81,-4.71 1.3,-7.04c0.14,-0.64 0.4,-1.37 0.85,-1.8c1.17,-1.15 2.46,-2.18 3.76,-3.19c0.3,-0.24 1.07,-0.43 1.18,-0.28c0.28,0.34 0.46,0.93 0.38,1.36c-0.57,2.91 -1.13,5.83 -1.86,8.71c-0.6,2.41 -0.19,4.44 1.32,6.42c3.89,5.1 7.68,10.29 11.51,15.44c0.57,0.76 1.03,1.66 1.76,2.21c0.47,0.35 1.53,0.46 1.97,0.15c0.51,-0.36 0.91,-1.31 0.84,-1.96c-0.08,-0.72 -0.71,-1.39 -1.14,-2.06c-3.18,-5.08 -6.4,-10.14 -9.54,-15.24c-0.34,-0.55 -0.43,-1.4 -0.3,-2.04c0.78,-3.79 1.57,-7.59 2.53,-11.34c1.27,-4.95 -0.09,-6.05 -4.55,-5.75l0,0zm-5.49,20.26c-0.17,0.6 -0.28,1 -0.39,1.4c-0.5,1.88 -0.66,3.96 -1.59,5.6c-1.56,2.73 -3.6,5.19 -5.49,7.73c-0.88,1.19 -0.92,2.72 0.03,3.41c0.94,0.69 1.98,0.36 2.9,-0.95c1.86,-2.64 3.81,-5.23 5.5,-7.98c0.92,-1.5 1.74,-3.24 1.93,-4.96c0.1,-0.9 -1.23,-1.98 -1.93,-2.97c-0.24,-0.35 -0.5,-0.67 -0.96,-1.28l0,0zm11.8,-14.42c-0.27,1.09 -0.49,1.9 -0.67,2.73c-0.29,1.28 0.39,2.95 1.62,3.45c2.83,1.13 5.7,2.2 8.59,3.16c0.43,0.14 1.11,-0.46 1.67,-0.71c-0.26,-0.57 -0.37,-1.34 -0.8,-1.65c-0.72,-0.5 -1.63,-0.71 -2.48,-1.01c-3.18,-1.09 -6.4,-2.13 -7.93,-5.97l0,0z" fill="white" id="svg_4"/>
   <path d="m40.9,16.01c-0.02,3.52 -2.82,6.28 -6.29,6.21c-3.4,-0.06 -6.23,-3.01 -6.15,-6.42c0.07,-3.34 2.95,-6.14 6.28,-6.13c3.48,0.02 6.18,2.79 6.15,6.34l0.01,0zm-6.15,4.42c2.45,-0.02 4.46,-2.01 4.48,-4.43c0.03,-2.49 -2.03,-4.54 -4.54,-4.53c-2.49,0.01 -4.41,1.92 -4.42,4.43c-0.01,2.6 1.91,4.55 4.48,4.53z" fill="white" id="svg_5"/>
  </g>
 </g>
</svg>