<?xml version="1.0"?>
<svg width="66" height="66" xmlns="http://www.w3.org/2000/svg" xmlns:svg="http://www.w3.org/2000/svg">
 <defs>
  <clipPath id="clip0_1_858">
   <rect fill="white" height="36.72" id="svg_1" transform="translate(9.60498 14.125)" width="45.76"/>
  </clipPath>
 </defs>
 <g class="layer">
  <title>Layer 1</title>
  <circle cx="32.77" cy="32.77" fill="#6d9bc6" id="svg_2" r="32.77"/>
  <g clip-path="url(#clip0_1_858)" id="svg_3">
   <path d="m52.44,32.12c0.38,0.88 0.8,1.73 1.12,2.61c0.17,0.45 0.24,0.95 0.25,1.44c0.01,1.78 0.05,3.56 -0.05,5.34c-0.1,1.59 -1.02,2.72 -2.46,3.4c-0.32,0.15 -0.42,0.31 -0.41,0.66c0.03,0.81 0.01,1.63 0.01,2.45c-0.02,1.69 -1.14,2.82 -2.83,2.82c-0.88,0.01 -1.76,0.01 -2.64,0c-1.69,0 -2.82,-1.13 -2.84,-2.82c0,-0.88 0,-1.75 0,-2.66l-20.2,0c0,0.66 0,1.34 -0.01,2.02c-0.01,0.46 0,0.92 -0.08,1.37c-0.23,1.2 -1.3,2.07 -2.55,2.09c-0.97,0.02 -1.94,0.01 -2.91,0c-1.59,-0.01 -2.73,-1.13 -2.76,-2.71c-0.02,-0.88 -0.01,-1.76 0,-2.63c0,-0.21 -0.03,-0.35 -0.26,-0.44c-1.66,-0.65 -2.59,-1.9 -2.65,-3.66c-0.07,-1.83 -0.04,-3.68 0.03,-5.52c0.05,-1.27 0.57,-2.41 1.28,-3.46c0.05,-0.07 0.09,-0.15 0.19,-0.3c-0.4,0 -0.75,0 -1.1,0c-1.25,-0.02 -1.96,-0.73 -1.96,-1.98c0,-0.37 -0.01,-0.74 0,-1.11c0.01,-1.02 0.74,-1.77 1.77,-1.8c0.89,-0.02 1.79,-0.02 2.68,0.01c0.36,0.02 0.71,0.17 1.11,0.27c0.04,-0.1 0.1,-0.26 0.15,-0.43c0.57,-1.76 1.07,-3.55 1.73,-5.27c0.65,-1.72 2.02,-2.59 3.85,-2.69c0.79,-0.04 1.58,-0.02 2.37,0c0.34,0.01 0.5,-0.07 0.59,-0.42c0.25,-0.97 0.55,-1.94 0.85,-2.9c0.33,-1.08 1.13,-1.67 2.25,-1.67c3.69,-0.01 7.38,-0.01 11.08,0c1.09,0 1.9,0.59 2.22,1.65c0.3,0.99 0.59,1.98 0.89,2.98c0.03,0.11 0.07,0.22 0.11,0.35c0.84,0 1.65,0 2.47,0c2.2,0.01 3.74,1.12 4.4,3.2c0.54,1.67 1.07,3.33 1.6,5c0.03,0.08 0.06,0.16 0.05,0.13c0.6,-0.07 1.14,-0.18 1.69,-0.21c0.68,-0.03 1.37,-0.01 2.05,0c1.11,0.02 1.84,0.76 1.85,1.86c0,0.37 0,0.75 0,1.12c-0.01,1.15 -0.73,1.88 -1.9,1.9c-0.37,0.01 -0.73,0 -1.03,0l0,0.01zm-2.08,-0.08c-0.42,0.75 -0.77,1.43 -1.18,2.08c-0.23,0.39 -0.51,0.78 -0.84,1.08c-0.8,0.72 -1.78,0.95 -2.85,0.95c-6.9,-0.01 -13.79,0 -20.69,0c-0.09,0 -0.18,0 -0.27,0c-0.41,-0.03 -0.7,-0.29 -0.71,-0.65c0,-0.34 0.26,-0.63 0.64,-0.68c0.15,-0.02 0.3,-0.01 0.45,-0.01c2.96,0 5.93,0 8.89,0c3.9,0 7.81,-0.01 11.71,0c0.8,0 1.61,-0.13 2.1,-0.78c0.6,-0.81 1.06,-1.74 1.66,-2.76c-0.6,-0.05 -1.07,-0.13 -1.53,-0.13c-10.17,-0.01 -20.34,-0.01 -30.52,-0.01c-0.2,0 -0.42,-0.01 -0.62,0.02c-0.26,0.04 -0.5,0.12 -0.8,0.2c0.4,0.71 0.79,1.34 1.11,2c0.51,1.03 1.37,1.44 2.46,1.46c0.63,0.01 1.25,-0.01 1.88,0c0.5,0.01 0.78,0.27 0.78,0.68c0,0.4 -0.29,0.65 -0.78,0.66c-0.68,0.01 -1.37,0.02 -2.06,-0.01c-1.51,-0.05 -2.67,-0.69 -3.41,-2.04c-0.3,-0.57 -0.61,-1.12 -0.92,-1.68c-0.07,-0.11 -0.15,-0.21 -0.23,-0.33c-0.1,0.06 -0.17,0.09 -0.22,0.14c-1.05,0.97 -1.77,2.16 -1.85,3.59c-0.1,1.81 -0.06,3.62 -0.07,5.43c0,0.25 0.05,0.51 0.12,0.75c0.35,1.26 1.38,1.98 2.82,1.98c11.28,0 22.56,0 33.83,0c0.14,0 0.27,0 0.41,0c1.47,-0.11 2.65,-1.16 2.74,-2.62c0.1,-1.54 0.06,-3.08 0.07,-4.63c0.01,-0.87 -0.15,-1.71 -0.52,-2.51c-0.37,-0.81 -0.84,-1.55 -1.61,-2.18l0.01,0zm-34.52,-2.17c0.37,-0.03 0.68,-0.08 0.99,-0.07c0.29,0 0.41,-0.1 0.49,-0.38c0.6,-1.92 1.22,-3.84 1.83,-5.75c0.45,-1.42 1.13,-1.91 2.62,-1.91c4.75,0 9.51,0 14.26,0c0.18,0 0.35,0 0.53,0.02c0.35,0.06 0.56,0.32 0.51,0.62c-0.03,0.23 -0.25,0.48 -0.45,0.62c-0.14,0.11 -0.4,0.08 -0.6,0.08c-4.76,0 -9.51,0 -14.26,0c-0.88,0 -1.07,0.14 -1.34,0.99c-0.55,1.73 -1.1,3.47 -1.65,5.21c-0.04,0.15 -0.09,0.3 -0.14,0.45l27.72,0c-0.63,-1.97 -1.24,-3.9 -1.86,-5.83c-0.21,-0.65 -0.44,-0.82 -1.14,-0.82c-1.15,-0.01 -2.3,0 -3.45,-0.01c-0.2,0 -0.46,0.02 -0.6,-0.08c-0.18,-0.15 -0.38,-0.42 -0.37,-0.63c0.01,-0.2 0.25,-0.43 0.44,-0.58c0.11,-0.08 0.31,-0.04 0.48,-0.04c1.14,-0.01 2.29,-0.01 3.44,0c1.39,0 2.09,0.53 2.52,1.86c0.62,1.93 1.23,3.87 1.86,5.8c0.04,0.13 0.15,0.33 0.25,0.35c0.39,0.06 0.78,0.07 1.2,0.09c-0.1,-0.31 -0.18,-0.59 -0.27,-0.87c-0.68,-2.13 -1.35,-4.27 -2.05,-6.39c-0.44,-1.35 -1.5,-2.14 -2.85,-2.15c-7.64,0 -15.28,0 -22.92,0c-1.28,0 -2.37,0.73 -2.77,1.94c-0.84,2.47 -1.61,4.95 -2.42,7.48l0,0zm24,-10.78c-0.31,-1.02 -0.59,-2 -0.89,-2.98c-0.13,-0.43 -0.45,-0.65 -0.91,-0.65c-3.71,0 -7.41,0 -11.12,0c-0.41,0 -0.74,0.18 -0.87,0.58c-0.31,1 -0.6,2.01 -0.92,3.04l14.71,0l0,0.01zm-24.41,26.25c0,1 -0.03,1.94 0,2.89c0.03,0.74 0.6,1.26 1.35,1.27c0.96,0.02 1.93,0.01 2.89,0c0.73,-0.01 1.3,-0.47 1.34,-1.17c0.06,-0.99 0.02,-1.98 0.02,-2.99l-5.6,0l0,0zm28.52,-0.01c0,1.02 -0.04,2 0.01,2.97c0.04,0.72 0.61,1.19 1.35,1.2c0.96,0.01 1.91,0.01 2.86,0c0.79,-0.01 1.34,-0.54 1.38,-1.33c0.01,-0.38 0,-0.77 0,-1.16c0,-0.55 0,-1.11 0,-1.68l-5.6,0zm-31.29,-14.56c0.41,0 0.81,0.02 1.21,0c0.4,-0.02 0.61,-0.25 0.62,-0.64c0,-0.34 0,-0.68 0,-1.02c-0.01,-0.35 -0.19,-0.55 -0.56,-0.54c-0.81,0 -1.63,0 -2.45,0c-0.36,0 -0.54,0.19 -0.53,0.55c0,0.35 -0.01,0.68 0,1.03c0,0.48 0.15,0.62 0.64,0.62c0.36,0.01 0.72,0 1.07,0l0,0zm39.62,-2.2c-0.4,0 -0.8,0 -1.2,0c-0.42,-0.01 -0.6,0.19 -0.59,0.59c0,0.33 0.01,0.65 -0.01,0.98c-0.03,0.43 0.25,0.61 0.59,0.62c0.81,0.04 1.63,0.02 2.45,0.01c0.33,-0.01 0.51,-0.19 0.51,-0.54c-0.01,-0.37 -0.01,-0.74 0,-1.11c0,-0.37 -0.18,-0.55 -0.55,-0.55c-0.4,-0.01 -0.8,0 -1.2,0l0,0z" fill="white" id="svg_4"/>
   <path d="m32.49,42.55c-2.33,0 -4.65,0.01 -6.97,0c-1.39,0 -2.1,-0.91 -1.76,-2.25c0.16,-0.63 0.32,-1.27 0.5,-1.89c0.21,-0.74 0.75,-1.17 1.51,-1.23c0.15,-0.01 0.3,-0.01 0.45,-0.01c4.18,0 8.36,0 12.55,0c1.27,0 1.75,0.37 2.07,1.61c0.15,0.56 0.29,1.11 0.43,1.67c0.27,1.16 -0.45,2.1 -1.64,2.1c-2.38,0.01 -4.76,0.01 -7.14,0.01l0,-0.01zm-0.02,-1.33c2.31,0 4.62,0 6.93,0c0.6,0 0.66,-0.08 0.51,-0.65c-0.12,-0.48 -0.27,-0.97 -0.36,-1.46c-0.08,-0.47 -0.31,-0.62 -0.78,-0.61c-3.49,0.02 -6.98,0.01 -10.46,0.01c-0.76,0 -1.52,0 -2.28,-0.01c-0.3,0 -0.46,0.11 -0.53,0.42c-0.12,0.55 -0.28,1.09 -0.42,1.63c-0.14,0.57 -0.07,0.67 0.51,0.67c2.29,0 4.58,0 6.88,0l0,0z" fill="white" id="svg_5"/>
   <path d="m48.88,36.89c0.99,-0.01 1.63,0.74 1.42,1.6c-0.19,0.78 -0.42,1.54 -0.64,2.31c-0.16,0.62 -0.59,0.95 -1.2,1.02c-1.58,0.18 -3.16,0.35 -4.75,0.5c-1,0.09 -1.71,-0.82 -1.34,-1.76c0.31,-0.81 0.69,-1.61 1.05,-2.4c0.2,-0.42 0.55,-0.67 1.01,-0.72c1.52,-0.2 3.04,-0.38 4.45,-0.55l0,0zm0.09,1.4c-0.12,-0.01 -0.17,-0.03 -0.23,-0.02c-1.31,0.15 -2.62,0.3 -3.93,0.47c-0.09,0.01 -0.21,0.11 -0.26,0.2c-0.3,0.65 -0.59,1.31 -0.88,1.97c0.04,0.02 0.06,0.03 0.07,0.03c1.49,-0.14 2.98,-0.29 4.47,-0.45c0.06,0 0.16,-0.08 0.18,-0.14c0.2,-0.68 0.38,-1.36 0.58,-2.06l0,0z" fill="white" id="svg_6"/>
   <path d="m21.34,42.33c-1.62,-0.17 -3.23,-0.33 -4.84,-0.51c-0.6,-0.07 -1,-0.42 -1.17,-1.01c-0.2,-0.72 -0.42,-1.45 -0.61,-2.18c-0.27,-1.08 0.43,-1.84 1.55,-1.71c1.36,0.16 2.72,0.32 4.08,0.48c0.57,0.06 1.02,0.29 1.26,0.84c0.33,0.75 0.69,1.48 0.99,2.24c0.4,0.96 -0.25,1.89 -1.26,1.85l0,0zm-5.33,-4.09c0.21,0.73 0.38,1.37 0.58,2.01c0.03,0.11 0.2,0.23 0.33,0.25c0.73,0.1 1.47,0.18 2.21,0.26c0.71,0.07 1.43,0.14 2.22,0.22c-0.13,-0.31 -0.27,-0.54 -0.33,-0.79c-0.28,-1.07 -0.86,-1.65 -2.07,-1.63c-0.95,0.02 -1.9,-0.2 -2.93,-0.32l-0.01,0z" fill="white" id="svg_7"/>
   <path d="m34.23,16.91c0.15,-0.27 0.26,-0.52 0.43,-0.72c0.08,-0.09 0.29,-0.08 0.43,-0.12c0.02,0.14 0.11,0.34 0.05,0.4c-0.53,0.59 -0.55,1.15 0.01,1.73c0.06,0.07 -0.01,0.27 -0.02,0.41c-0.16,-0.04 -0.34,-0.06 -0.47,-0.14c-0.1,-0.07 -0.14,-0.23 -0.21,-0.34c-0.07,-0.11 -0.14,-0.22 -0.23,-0.36c-0.17,0.27 -0.29,0.53 -0.47,0.74c-0.07,0.09 -0.27,0.08 -0.4,0.12c-0.03,-0.14 -0.06,-0.27 -0.08,-0.41c0,-0.02 0.02,-0.05 0.04,-0.08c0.51,-0.52 0.56,-1.05 0.03,-1.59c-0.13,-0.14 -0.24,-0.33 0.02,-0.48c0.26,-0.15 0.37,0 0.48,0.2c0.12,0.21 0.24,0.41 0.38,0.64l0.01,0z" fill="white" id="svg_8"/>
   <path d="m32.08,18.14c-0.37,0.02 -0.81,-0.2 -0.9,0.41c-0.01,0.05 -0.22,0.12 -0.29,0.09c-0.1,-0.05 -0.23,-0.2 -0.21,-0.28c0.2,-0.72 0.41,-1.45 0.66,-2.16c0.1,-0.29 0.62,-0.3 0.72,-0.01c0.26,0.71 0.47,1.43 0.67,2.16c0.03,0.07 -0.1,0.24 -0.19,0.28c-0.09,0.03 -0.25,-0.04 -0.32,-0.11c-0.08,-0.09 -0.1,-0.24 -0.14,-0.38l0,0zm-0.63,-0.45c0.22,-0.01 0.35,-0.02 0.51,-0.03c-0.08,-0.3 -0.15,-0.54 -0.22,-0.78c-0.03,0 -0.05,0 -0.08,0c-0.06,0.25 -0.13,0.5 -0.21,0.81z" fill="white" id="svg_9"/>
   <path d="m29.21,16.54c-0.2,0 -0.33,0.02 -0.43,-0.03c-0.1,-0.05 -0.19,-0.17 -0.21,-0.27c-0.01,-0.07 0.13,-0.22 0.2,-0.22c0.49,-0.02 0.98,-0.02 1.47,0c0.07,0 0.18,0.15 0.19,0.23c0,0.09 -0.09,0.22 -0.17,0.26c-0.12,0.05 -0.27,0.02 -0.46,0.03c0,0.56 0,1.12 0,1.67c0,0.21 0.04,0.44 -0.28,0.45c-0.34,0.02 -0.31,-0.23 -0.31,-0.46c0,-0.54 0,-1.08 0,-1.66l0,0z" fill="white" id="svg_10"/>
   <path d="m36.43,17.36c0,0.31 0.02,0.63 -0.02,0.93c-0.01,0.14 -0.14,0.34 -0.25,0.36c-0.27,0.06 -0.29,-0.16 -0.29,-0.37c0,-0.64 -0.02,-1.28 0.01,-1.91c0.01,-0.12 0.18,-0.24 0.28,-0.35c0.09,0.12 0.24,0.23 0.25,0.36c0.04,0.33 0.02,0.65 0.02,0.98l0,0z" fill="white" id="svg_11"/>
  </g>
 </g>
</svg>