<?xml version="1.0"?>
<svg width="66" height="66" xmlns="http://www.w3.org/2000/svg" xmlns:svg="http://www.w3.org/2000/svg">
 <defs>
  <clipPath id="clip0_1_849">
   <rect fill="white" height="49.93" id="svg_1" transform="matrix(-1 0 0 1 52.9458 8.53442)" width="37.58"/>
  </clipPath>
 </defs>
 <g class="layer">
  <title>Layer 1</title>
  <circle cx="33" cy="33" fill="#6d9bc6" id="svg_2" r="33"/>
  <g clip-path="url(#clip0_1_849)" id="svg_3">
   <path d="m27.06,46.69c-0.69,1.78 -1.37,3.52 -2.05,5.27c-0.68,1.76 -1.37,3.52 -2.04,5.28c-0.27,0.69 0.17,1.3 0.86,1.2c0.35,-0.05 0.55,-0.28 0.68,-0.6c0.26,-0.67 0.53,-1.34 0.77,-2.02c0.09,-0.23 0.21,-0.31 0.46,-0.31c5.64,0.01 11.29,0.01 16.93,0c0.25,0 0.37,0.08 0.46,0.31c0.24,0.68 0.51,1.35 0.78,2.02c0.21,0.52 0.63,0.73 1.09,0.57c0.46,-0.17 0.65,-0.63 0.44,-1.18c-1.31,-3.36 -2.61,-6.73 -3.92,-10.1c-0.06,-0.15 -0.11,-0.3 -0.13,-0.35c0.83,-0.53 1.68,-0.94 2.38,-1.53c1.7,-1.39 2.54,-3.24 2.55,-5.44c0.01,-4.82 0.05,-9.65 -0.01,-14.47c-0.04,-3.02 -1.55,-5.18 -4.24,-6.51c-0.23,-0.12 -0.43,-0.1 -0.67,0c-0.91,0.41 -1.75,0.24 -2.52,-0.38c-0.16,-0.13 -0.38,-0.21 -0.59,-0.23c-0.4,-0.03 -0.8,-0.01 -1.2,-0.01c-0.62,0.01 -1.17,0 -1.73,0.46c-0.8,0.66 -1.97,0.47 -2.78,-0.21c-0.16,-0.14 -0.4,-0.23 -0.61,-0.23c-0.67,-0.03 -1.34,-0.03 -2,-0.01c-0.18,0.01 -0.38,0.09 -0.51,0.2c-0.79,0.66 -1.65,0.81 -2.61,0.41c-0.16,-0.07 -0.41,-0.08 -0.57,-0.01c-2.68,1.29 -4.23,3.42 -4.28,6.39c-0.08,4.92 -0.04,9.85 -0.01,14.77c0.01,2.86 1.9,5.49 4.59,6.52c0.14,0.06 0.29,0.11 0.48,0.19l0,0zm6.8,-13.86c-3.02,0 -6.04,0 -9.06,0c-0.84,0 -1.35,-0.51 -1.35,-1.35c-0.01,-0.94 -0.01,-1.89 0,-2.84c0.01,-2.59 1.97,-4.62 4.57,-4.64c3.87,-0.03 7.74,-0.03 11.6,0c2.6,0.02 4.55,2.05 4.57,4.65c0.01,0.89 0.01,1.78 0,2.67c0,1.04 -0.46,1.51 -1.49,1.51c-2.95,0 -5.89,0 -8.84,0l0,0zm-7.8,21.02c0.37,-0.95 0.71,-1.86 1.08,-2.75c0.03,-0.09 0.22,-0.16 0.33,-0.16c4.49,0 8.98,0 13.47,0.01c0.13,0 0.32,0.14 0.38,0.26c0.27,0.62 0.5,1.26 0.75,1.9c0.09,0.23 0.17,0.47 0.27,0.74l-16.29,0l0.01,0zm1.78,-4.59c0.26,-0.68 0.52,-1.31 0.74,-1.95c0.09,-0.26 0.21,-0.33 0.47,-0.33c3.32,0.01 6.64,0.01 9.97,0.01c0.23,0 0.46,0 0.68,0c0.29,0.76 0.57,1.5 0.87,2.27l-12.73,0l0,0zm0.03,-5.66c-1.64,0.01 -2.95,-1.3 -2.95,-2.93c0,-1.61 1.31,-2.92 2.91,-2.93c1.61,0 2.94,1.3 2.96,2.9c0.02,1.62 -1.3,2.96 -2.92,2.96zm9.76,-2.91c0,-1.64 1.3,-2.95 2.93,-2.95c1.6,0 2.93,1.32 2.93,2.92c0.01,1.62 -1.31,2.94 -2.94,2.94c-1.61,0 -2.92,-1.29 -2.92,-2.91z" fill="white" id="svg_4"/>
   <path d="m52.93,31.32c0,-3.74 -0.01,-7.48 0.01,-11.22c0.01,-0.83 -0.16,-1.6 -0.48,-2.35c-1.36,-3.14 -3.71,-5.32 -6.72,-6.85c-2.29,-1.16 -4.75,-1.78 -7.29,-2.09c-3.54,-0.43 -7.08,-0.37 -10.59,0.32c-3.45,0.69 -6.61,2.01 -9.18,4.51c-1.47,1.42 -2.57,3.09 -3.18,5.07c-0.08,0.28 -0.13,0.6 -0.13,0.9c-0.01,7.83 -0.01,15.66 -0.01,23.49c0,0.12 0,0.25 0.01,0.37c0.05,0.38 0.35,0.66 0.73,0.7c0.38,0.03 0.73,-0.17 0.85,-0.53c0.05,-0.18 0.06,-0.38 0.06,-0.58c0.01,-7.74 0,-15.49 0.01,-23.24c0,-0.99 0.48,-1.82 0.96,-2.63c1.58,-2.7 4,-4.38 6.87,-5.48c2.51,-0.97 5.14,-1.38 7.82,-1.48c3.5,-0.14 6.95,0.14 10.29,1.3c2.86,1 5.32,2.57 7.04,5.14c0.31,0.47 0.58,0.98 0.83,1.49c0.33,0.67 0.47,1.37 0.47,2.13c-0.02,7.57 -0.01,15.13 -0.01,22.7c0,0.21 0,0.42 0.05,0.62c0.1,0.37 0.48,0.6 0.87,0.56c0.38,-0.04 0.67,-0.33 0.71,-0.71c0.02,-0.15 0.01,-0.3 0.01,-0.46c0,-3.89 0,-7.79 0,-11.68l0,0z" fill="white" id="svg_5"/>
   <path d="m41.93,16.66c-0.02,-0.85 -0.69,-1.47 -1.54,-1.45c-0.82,0.02 -1.45,0.7 -1.42,1.54c0.02,0.81 0.71,1.47 1.52,1.44c0.82,-0.03 1.46,-0.7 1.44,-1.53z" fill="white" id="svg_6"/>
   <path d="m34.14,15.21c-0.83,0.01 -1.48,0.67 -1.48,1.49c0,0.81 0.67,1.49 1.48,1.49c0.83,0.01 1.52,-0.69 1.5,-1.52c-0.01,-0.82 -0.68,-1.46 -1.5,-1.46z" fill="white" id="svg_7"/>
   <path d="m26.37,16.68c-0.01,0.83 0.64,1.5 1.46,1.51c0.81,0.01 1.49,-0.65 1.51,-1.46c0.02,-0.84 -0.65,-1.52 -1.49,-1.52c-0.83,0 -1.47,0.64 -1.48,1.47z" fill="white" id="svg_8"/>
   <path d="m25.79,40.7c0.01,1.14 0.93,2.05 2.07,2.05c1.14,-0.01 2.06,-0.93 2.06,-2.07c0,-1.16 -0.95,-2.1 -2.1,-2.08c-1.14,0.02 -2.04,0.95 -2.03,2.1l0,0z" fill="white" id="svg_9"/>
   <path d="m38.49,40.68c0,1.15 0.92,2.07 2.06,2.07c1.14,0 2.08,-0.93 2.09,-2.06c0.01,-1.14 -0.96,-2.1 -2.1,-2.09c-1.14,0.01 -2.06,0.94 -2.05,2.08z" fill="white" id="svg_10"/>
  </g>
 </g>
</svg>